<svg xmlns="http://www.w3.org/2000/svg" xmlns:xlink="http://www.w3.org/1999/xlink" xmlns:inkscape="http://www.inkscape.org/namespaces/inkscape" version="1.1" width="114.97" height="87.23999" viewBox="0 0 114.97 87.23999">
<defs>
<clipPath id="clip_1">
<path transform="matrix(1,0,0,-1,-364.05,340.9)" d="M364.05 253.981H479.1V340.901H364.05Z"/>
</clipPath>
</defs>
<path transform="matrix(.75,0,0,.75,-364.05,-254.42002)" d="M0 0H2245.12V1587.52H0Z" fill="#001023"/>
<path transform="matrix(.75,0,0,.75,54.630006,2.7399903)" stroke-width=".64" stroke-linecap="round" stroke-linejoin="round" fill="none" stroke="#afafaf" d="M0 0V3.04L.16 3.52 .8 3.84H1.44L1.92 3.68 2.08 3.52 2.24 3.04V0"/>
<path transform="matrix(.75,0,0,.75,58.830018,5.4999697)" stroke-width=".64" stroke-linecap="round" stroke-linejoin="round" fill="none" stroke="#afafaf" d="M0 0-.32 .16H-1.12L-1.44 0-1.6-.16-1.76-.64V-1.6L-1.6-2.08-1.44-2.24-1.12-2.4H-.32L0-2.24"/>
<path transform="matrix(.75,0,0,.75,61.22998,5.4999697)" stroke-width=".64" stroke-linecap="round" stroke-linejoin="round" fill="none" stroke="#afafaf" d="M0 0-.32 .16H-.96L-1.44 0-1.6-.16-1.76-.64V-1.6L-1.6-2.08-1.44-2.24-.96-2.4H-.32L0-2.24"/>
<path transform="matrix(.75,0,0,.75,59.430025,10.059998)" stroke-width=".48" stroke-linecap="round" stroke-linejoin="round" fill="none" stroke="#afafaf" d="M0 0C0 1.12-.96 2.08-2.08 2.08-3.2 2.08-4 1.12-4 0-4-1.12-3.2-1.92-2.08-1.92-.96-1.92 0-1.12 0 0Z"/>
<path transform="matrix(.75,0,0,.75,61.350038,10.059998)" stroke-width=".48" stroke-linecap="round" stroke-linejoin="round" fill="none" stroke="#afafaf" d="M0 0C0 2.56-2.08 4.64-4.64 4.64-7.2 4.64-9.12 2.56-9.12 0-9.12-2.56-7.2-4.48-4.64-4.48-2.08-4.48 0-2.56 0 0Z"/>
<path transform="matrix(.75,0,0,.75,-364.05,-254.42002)" stroke-width=".64" stroke-linecap="round" stroke-linejoin="round" fill="none" stroke="#afafaf" d="M561.28 359.2V361.92L561.12 362.4 560.8 362.72 560.32 362.88H559.84"/>
<path transform="matrix(.75,0,0,.75,-364.05,-254.42002)" stroke-width=".64" stroke-linecap="round" stroke-linejoin="round" fill="none" stroke="#afafaf" d="M565.12 362.88H563.04"/>
<path transform="matrix(.75,0,0,.75,-364.05,-254.42002)" stroke-width=".64" stroke-linecap="round" stroke-linejoin="round" fill="none" stroke="#afafaf" d="M564 362.88V359.2L563.68 359.68 563.36 360 563.04 360.16"/>
<path transform="matrix(.75,0,0,.75,62.309999,31.660004)" stroke-width=".32" stroke-linecap="round" stroke-linejoin="round" fill="none" stroke="#afafaf" d="M0 0C0 5.12-4.32 9.44-9.44 9.44-14.72 9.44-19.04 5.12-19.04 0-19.04-5.28-14.72-9.6-9.44-9.6-4.32-9.6 0-5.28 0 0Z"/>
<path transform="matrix(.75,0,0,.75,95.19,42.45999)" stroke-width=".32" stroke-linecap="round" stroke-linejoin="round" fill="none" stroke="#afafaf" d="M0 0C0 8.48-7.04 15.52-15.52 15.52-24.16 15.52-31.2 8.48-31.2 0-31.2-8.64-24.16-15.68-15.52-15.68-7.04-15.68 0-8.64 0 0Z"/>
<path transform="matrix(.75,0,0,.75,-364.05,-254.42002)" stroke-width=".32" stroke-linecap="round" stroke-linejoin="round" fill="none" stroke="#afafaf" d="M557.6 398.72C560.32 396 564.32 395.2 567.84 396.64 571.36 398.08 573.6 401.6 573.6 405.44"/>
<path transform="matrix(.75,0,0,.75,-364.05,-254.42002)" stroke-width=".32" stroke-linecap="round" stroke-linejoin="round" fill="none" stroke="#afafaf" d="M573.6 405.44C573.6 409.12 571.36 412.48 567.84 413.92 564.32 415.36 560.32 414.56 557.6 412"/>
<path transform="matrix(.75,0,0,.75,-364.05,-254.42002)" stroke-width=".64" stroke-linecap="round" stroke-linejoin="round" fill="none" stroke="#afafaf" d="M566.4 405.76 566.24 406.08 565.28 407.04 565.12 407.36V407.68"/>
<path transform="matrix(.75,0,0,.75,60.51001,51.21997)" stroke-width=".64" stroke-linecap="round" stroke-linejoin="round" fill="none" stroke="#afafaf" d="M0 0-.16 .32-.64 .8-1.28 .96H-2.56L-3.36 .8-3.68 .32-3.84 0V-.64L-3.68-1.12-3.36-1.44-2.56-1.6H-1.28L-.64-1.44-.16-1.12 0-.64V0"/>
<path transform="matrix(.75,0,0,.75,-364.05,-254.42002)" stroke-width=".64" stroke-linecap="round" stroke-linejoin="round" fill="none" stroke="#afafaf" d="M566.08 402.4V404.48"/>
<path transform="matrix(.75,0,0,.75,-364.05,-254.42002)" stroke-width=".64" stroke-linecap="round" stroke-linejoin="round" fill="none" stroke="#afafaf" d="M566.08 403.36H562.24L562.72 403.84 563.2 404.16 563.36 404.48"/>
<path transform="matrix(.75,0,0,.75,91.110019,43.059999)" stroke-width=".96" stroke-linecap="round" stroke-linejoin="round" fill="none" stroke="#afafaf" d="M0 0 .16 .16 .48 .8V1.28L.16 2.08-.8 2.72-1.6 2.88H-2.4L-3.2 2.72-4.16 2.08-4.32 1.28V.8L-4.16 .16-4 0"/>
<path transform="matrix(.75,0,0,.75,87.869998,41.859987)" stroke-width=".96" stroke-linecap="round" stroke-linejoin="round" fill="none" stroke="#afafaf" d="M0 0V-3.04L1.76-1.44V-2.08L1.92-2.56 2.24-2.72 2.72-3.04H3.84L4.32-2.72 4.48-2.56 4.8-2.08V-.8L4.48-.32 4.32 0"/>
<path transform="matrix(.75,0,0,.75,99.98999,41.25998)" stroke-width=".64" stroke-linecap="round" stroke-linejoin="round" fill="none" stroke="#afafaf" d="M0 0H.8L1.44 .64 1.6 1.28V2.56L1.44 3.36 1.12 3.68 .8 3.84H0L-.32 3.68-.64 3.36-.96 2.56V1.28L-.64 .64 0 0"/>
<path transform="matrix(.75,0,0,.75,102.390018,41.25998)" stroke-width=".64" stroke-linecap="round" stroke-linejoin="round" fill="none" stroke="#afafaf" d="M0 0V3.2L.16 3.52 .8 3.84H1.44L1.92 3.68 2.08 3.52 2.24 3.2V0"/>
<path transform="matrix(.75,0,0,.75,-364.05,-254.42002)" stroke-width=".64" stroke-linecap="round" stroke-linejoin="round" fill="none" stroke="#afafaf" d="M625.44 394.24H627.52"/>
<path transform="matrix(.75,0,0,.75,-364.05,-254.42002)" stroke-width=".64" stroke-linecap="round" stroke-linejoin="round" fill="none" stroke="#afafaf" d="M626.4 398.08V394.24"/>
<path transform="matrix(.75,0,0,.75,104.43002,48.69998)" stroke-width=".48" stroke-linecap="round" stroke-linejoin="round" fill="none" stroke="#afafaf" d="M0 0C0 1.12-.96 2.08-2.08 2.08-3.2 2.08-4 1.12-4 0-4-1.12-3.2-1.92-2.08-1.92-.96-1.92 0-1.12 0 0Z"/>
<path transform="matrix(.75,0,0,.75,106.35004,48.69998)" stroke-width=".48" stroke-linecap="round" stroke-linejoin="round" fill="none" stroke="#afafaf" d="M0 0C0 2.56-2.08 4.64-4.64 4.64-7.2 4.64-9.12 2.56-9.12 0-9.12-2.56-7.2-4.48-4.64-4.48-2.08-4.48 0-2.56 0 0Z"/>
<path transform="matrix(.75,0,0,.75,-364.05,-254.42002)" stroke-width=".64" stroke-linecap="round" stroke-linejoin="round" fill="none" stroke="#afafaf" d="M621.28 410.56V413.28L621.12 413.76 620.16 414.4H619.84"/>
<path transform="matrix(.75,0,0,.75,103.110019,53.73999)" stroke-width=".64" stroke-linecap="round" stroke-linejoin="round" fill="none" stroke="#afafaf" d="M0 0 .16-.16 .48-.32H1.44L1.76-.16 1.92 0 2.08 .32V.8L1.92 1.28-.16 3.52H2.08"/>
<path transform="matrix(.75,0,0,.75,-364.05,-254.42002)" stroke-width=".64" stroke-linecap="round" stroke-linejoin="round" fill="none" stroke="#afafaf" d="M621.28 389.44V392.16L621.12 392.64 620.64 392.96 620.16 393.12H619.84"/>
<path transform="matrix(.75,0,0,.75,104.43002,37.660005)" stroke-width=".64" stroke-linecap="round" stroke-linejoin="round" fill="none" stroke="#afafaf" d="M0 0H-.64L-1.12 .16-1.28 .32-1.6 .8-1.76 1.6V3.04L-1.6 3.36-1.44 3.52-1.12 3.68H-.32L0 3.52 .16 3.36 .32 3.04V2.08L.16 1.76 0 1.6-.32 1.44H-1.12L-1.44 1.6-1.6 1.76-1.76 2.08"/>
<path transform="matrix(.75,0,0,.75,-364.05,-254.42002)" stroke-width=".64" stroke-linecap="round" stroke-linejoin="round" fill="none" stroke="#afafaf" d="M608 425.76V428.32"/>
<path transform="matrix(.75,0,0,.75,-364.05,-254.42002)" stroke-width=".64" stroke-linecap="round" stroke-linejoin="round" fill="none" stroke="#afafaf" d="M606.4 425.76V427.84L606.56 428.16 607.04 428.32H607.52L607.84 428.16 608 428"/>
<path transform="matrix(.75,0,0,.75,-364.05,-254.42002)" stroke-width=".64" stroke-linecap="round" stroke-linejoin="round" fill="none" stroke="#afafaf" d="M609.92 425.76V429.6"/>
<path transform="matrix(.75,0,0,.75,93.390018,65.01999)" stroke-width=".64" stroke-linecap="round" stroke-linejoin="round" fill="none" stroke="#afafaf" d="M0 0 .32-.16H.96L1.44 0 1.6 .16 1.76 .64V1.6L1.6 2.08 1.44 2.24 .96 2.4H.32L0 2.24"/>
<path transform="matrix(.75,0,0,.75,96.98999,66.69998)" stroke-width=".64" stroke-linecap="round" stroke-linejoin="round" fill="none" stroke="#afafaf" d="M0 0-.32 .16H-1.12L-1.44 0-1.6-.32V-1.76L-1.44-2.24-1.12-2.4H-.32L0-2.24 .16-1.76V-1.44L-1.6-1.12"/>
<path transform="matrix(.75,0,0,.75,-364.05,-254.42002)" stroke-width=".64" stroke-linecap="round" stroke-linejoin="round" fill="none" stroke="#afafaf" d="M616.16 425.76 617.12 428.32 617.92 425.76"/>
<path transform="matrix(.75,0,0,.75,-364.05,-254.42002)" stroke-width=".64" stroke-linecap="round" stroke-linejoin="round" fill="none" stroke="#afafaf" d="M619.36 425.76V428.32"/>
<path transform="matrix(.75,0,0,.75,-364.05,-254.42002)" stroke-width=".64" stroke-linecap="round" stroke-linejoin="round" fill="none" stroke="#afafaf" d="M619.36 426.08 619.52 425.92 620 425.76H620.48L620.8 425.92 620.96 426.4V428.32"/>
<path transform="matrix(.75,0,0,.75,104.19,66.69998)" stroke-width=".64" stroke-linecap="round" stroke-linejoin="round" fill="none" stroke="#afafaf" d="M0 0-.48 .16H-1.12L-1.44 0-1.6-.32V-1.76L-1.44-2.24-1.12-2.4H-.48L0-2.24 .16-1.76V-1.44L-1.6-1.12"/>
<path transform="matrix(.75,0,0,.75,-364.05,-254.42002)" stroke-width=".64" stroke-linecap="round" stroke-linejoin="round" fill="none" stroke="#afafaf" d="M626.08 425.76V428.32"/>
<path transform="matrix(.75,0,0,.75,-364.05,-254.42002)" stroke-width=".64" stroke-linecap="round" stroke-linejoin="round" fill="none" stroke="#afafaf" d="M626.08 426.08 626.24 425.92 626.56 425.76H627.2L627.52 425.92 627.68 426.4V428.32"/>
<path transform="matrix(.75,0,0,.75,-364.05,-254.42002)" stroke-width=".64" stroke-linecap="round" stroke-linejoin="round" fill="none" stroke="#afafaf" d="M629.44 428.32V425.76"/>
<path transform="matrix(.75,0,0,.75,-364.05,-254.42002)" stroke-width=".64" stroke-linecap="round" stroke-linejoin="round" fill="none" stroke="#afafaf" d="M629.44 424.48 629.28 424.64 629.44 424.96 629.6 424.64 629.44 424.48V424.96"/>
<path transform="matrix(.75,0,0,.75,100.95001,71.379978)" stroke-width=".48" stroke-linecap="round" stroke-linejoin="round" fill="none" stroke="#afafaf" d="M0 0C0 1.12-.96 2.08-2.08 2.08-3.2 2.08-4 1.12-4 0-4-1.12-3.2-1.92-2.08-1.92-.96-1.92 0-1.12 0 0Z"/>
<path transform="matrix(.75,0,0,.75,102.869998,71.379978)" stroke-width=".48" stroke-linecap="round" stroke-linejoin="round" fill="none" stroke="#afafaf" d="M0 0C0 2.56-2.08 4.64-4.64 4.64-7.2 4.64-9.12 2.56-9.12 0-9.12-2.56-7.2-4.48-4.64-4.48-2.08-4.48 0-2.56 0 0Z"/>
<path transform="matrix(.75,0,0,.75,-364.05,-254.42002)" stroke-width=".64" stroke-linecap="round" stroke-linejoin="round" fill="none" stroke="#afafaf" d="M614.88 440.8V443.52L614.72 444 614.4 444.32 613.76 444.64H613.44"/>
<path transform="matrix(.75,0,0,.75,-364.05,-254.42002)" stroke-width=".64" stroke-linecap="round" stroke-linejoin="round" fill="none" stroke="#afafaf" d="M618.72 444.64H616.48"/>
<path transform="matrix(.75,0,0,.75,-364.05,-254.42002)" stroke-width=".64" stroke-linecap="round" stroke-linejoin="round" fill="none" stroke="#afafaf" d="M617.6 444.64V440.8L616.96 441.76 616.48 441.92"/>
<path transform="matrix(.75,0,0,.75,101.670047,76.17996)" stroke-width=".64" stroke-linecap="round" stroke-linejoin="round" fill="none" stroke="#afafaf" d="M0 0H.48L.8 .16 .96 .32 1.12 .64 1.28 1.44V2.4L1.12 3.04 .96 3.36 .48 3.84H0L-.48 3.36-.64 3.04-.8 2.4V1.44L-.64 .64-.48 .32-.32 .16 0 0"/>
<path transform="matrix(.75,0,0,.75,-364.05,-254.42002)" stroke-width=".32" stroke-linecap="round" stroke-linejoin="round" fill="none" stroke="#afafaf" d="M521.92 414.72V417.12"/>
<path transform="matrix(.75,0,0,.75,-364.05,-254.42002)" stroke-width=".32" stroke-linecap="round" stroke-linejoin="round" fill="none" stroke="#afafaf" d="M526.72 417.12H517.28"/>
<path transform="matrix(.75,0,0,.75,-364.05,-254.42002)" stroke-width=".32" stroke-linecap="round" stroke-linejoin="round" fill="none" stroke="#afafaf" d="M543.2 381.44V379.04"/>
<path transform="matrix(.75,0,0,.75,31.710022,43.539979)" stroke-width=".32" stroke-linecap="round" stroke-linejoin="round" fill="none" stroke="#afafaf" d="M0 0C0 5.12-4.32 9.44-9.44 9.44-14.72 9.44-19.04 5.12-19.04 0-19.04-5.28-14.72-9.6-9.44-9.6-4.32-9.6 0-5.28 0 0Z"/>
<path transform="matrix(.75,0,0,.75,24.03003,40.899995)" stroke-width=".96" stroke-linecap="round" stroke-linejoin="round" fill="none" stroke="#afafaf" d="M0 0-.96 .48H-1.44L-2.08 .16-2.56-.32-2.72-.64-3.04-1.6V-2.24L-2.56-3.68-2.08-4.16-1.44-4.32H-.96L-.32-4.16 0-3.84"/>
<path transform="matrix(.75,0,0,.75,25.350037,38.01999)" stroke-width=".96" stroke-linecap="round" stroke-linejoin="round" fill="none" stroke="#afafaf" d="M0 0 .32-.32 .64-.48H1.92L2.24-.32 2.56 0 2.72 .32V.8L2.56 1.6-.16 4.32H2.72"/>
<path transform="matrix(.75,0,0,.75,-364.05,-254.42002)" stroke-width=".64" stroke-linecap="round" stroke-linejoin="round" fill="none" stroke="#afafaf" d="M608 350.24V352.8"/>
<path transform="matrix(.75,0,0,.75,-364.05,-254.42002)" stroke-width=".64" stroke-linecap="round" stroke-linejoin="round" fill="none" stroke="#afafaf" d="M606.4 350.24V352.16L606.56 352.48 607.04 352.8H607.52L608 352.32"/>
<path transform="matrix(.75,0,0,.75,-364.05,-254.42002)" stroke-width=".64" stroke-linecap="round" stroke-linejoin="round" fill="none" stroke="#afafaf" d="M609.92 350.24V353.92"/>
<path transform="matrix(.75,0,0,.75,93.390018,8.379974)" stroke-width=".64" stroke-linecap="round" stroke-linejoin="round" fill="none" stroke="#afafaf" d="M0 0 .32-.16H.96L1.44 0 1.6 .16 1.76 .48V1.6L1.6 1.92 1.44 2.08 .96 2.4H.32L0 2.08"/>
<path transform="matrix(.75,0,0,.75,96.98999,9.940002)" stroke-width=".64" stroke-linecap="round" stroke-linejoin="round" fill="none" stroke="#afafaf" d="M0 0-.32 .32H-1.12L-1.44 0-1.6-.32V-1.76L-1.44-2.08-1.12-2.24H-.32L0-2.08 .16-1.76V-1.44L-1.6-.96"/>
<path transform="matrix(.75,0,0,.75,-364.05,-254.42002)" stroke-width=".64" stroke-linecap="round" stroke-linejoin="round" fill="none" stroke="#afafaf" d="M616.16 350.24 617.12 352.8 617.92 350.24"/>
<path transform="matrix(.75,0,0,.75,-364.05,-254.42002)" stroke-width=".64" stroke-linecap="round" stroke-linejoin="round" fill="none" stroke="#afafaf" d="M619.36 350.24V352.8"/>
<path transform="matrix(.75,0,0,.75,-364.05,-254.42002)" stroke-width=".64" stroke-linecap="round" stroke-linejoin="round" fill="none" stroke="#afafaf" d="M619.36 350.56 619.52 350.4 620 350.24H620.48L620.8 350.4 620.96 350.72V352.8"/>
<path transform="matrix(.75,0,0,.75,104.19,9.940002)" stroke-width=".64" stroke-linecap="round" stroke-linejoin="round" fill="none" stroke="#afafaf" d="M0 0-.48 .32H-1.12L-1.44 0-1.6-.32V-1.76L-1.44-2.08-1.12-2.24H-.48L0-2.08 .16-1.76V-1.44L-1.6-.96"/>
<path transform="matrix(.75,0,0,.75,-364.05,-254.42002)" stroke-width=".64" stroke-linecap="round" stroke-linejoin="round" fill="none" stroke="#afafaf" d="M626.08 350.24V352.8"/>
<path transform="matrix(.75,0,0,.75,-364.05,-254.42002)" stroke-width=".64" stroke-linecap="round" stroke-linejoin="round" fill="none" stroke="#afafaf" d="M626.08 350.56 626.24 350.4 626.56 350.24H627.2L627.52 350.4 627.68 350.72V352.8"/>
<path transform="matrix(.75,0,0,.75,-364.05,-254.42002)" stroke-width=".64" stroke-linecap="round" stroke-linejoin="round" fill="none" stroke="#afafaf" d="M629.44 352.8V350.24"/>
<path transform="matrix(.75,0,0,.75,-364.05,-254.42002)" stroke-width=".64" stroke-linecap="round" stroke-linejoin="round" fill="none" stroke="#afafaf" d="M629.44 348.96 629.28 349.12 629.44 349.28 629.6 349.12 629.44 348.96V349.28"/>
<path transform="matrix(.75,0,0,.75,100.95001,14.619995)" stroke-width=".48" stroke-linecap="round" stroke-linejoin="round" fill="none" stroke="#afafaf" d="M0 0C0 1.12-.96 2.08-2.08 2.08-3.2 2.08-4 1.12-4 0-4-1.12-3.2-1.92-2.08-1.92-.96-1.92 0-1.12 0 0Z"/>
<path transform="matrix(.75,0,0,.75,102.869998,14.619995)" stroke-width=".48" stroke-linecap="round" stroke-linejoin="round" fill="none" stroke="#afafaf" d="M0 0C0 2.56-2.08 4.64-4.64 4.64-7.2 4.64-9.12 2.56-9.12 0-9.12-2.56-7.2-4.48-4.64-4.48-2.08-4.48 0-2.56 0 0Z"/>
<path transform="matrix(.75,0,0,.75,-364.05,-254.42002)" stroke-width=".64" stroke-linecap="round" stroke-linejoin="round" fill="none" stroke="#afafaf" d="M616.64 365.28V367.84L616.48 368.48 616.16 368.8 615.68 368.96H615.2"/>
<path transform="matrix(.75,0,0,.75,-364.05,-254.42002)" stroke-width=".64" stroke-linecap="round" stroke-linejoin="round" fill="none" stroke="#afafaf" d="M618.08 365.28H620.64L619.04 368.96"/>
<path transform="matrix(.75,0,0,.75,100.95001,25.539978)" stroke-width=".64" stroke-linecap="round" stroke-linejoin="round" fill="none" stroke="#afafaf" d="M0 0-.32-.16H-.8L-1.44 0-1.76 .32-1.92 .8-2.08 1.44V2.08L-1.92 2.72-1.76 3.04-1.44 3.52-.8 3.68H-.48L0 3.52 .32 3.2V2.08H-.48"/>
<path transform="matrix(.75,0,0,.75,-364.05,-254.42002)" stroke-width=".64" stroke-linecap="round" stroke-linejoin="round" fill="none" stroke="#afafaf" d="M621.92 374.4V376.96"/>
<path transform="matrix(.75,0,0,.75,-364.05,-254.42002)" stroke-width=".64" stroke-linecap="round" stroke-linejoin="round" fill="none" stroke="#afafaf" d="M621.92 374.72 622.08 374.56 622.4 374.4H622.88L623.36 374.56 623.52 374.88V376.96"/>
<path transform="matrix(.75,0,0,.75,-364.05,-254.42002)" stroke-width=".64" stroke-linecap="round" stroke-linejoin="round" fill="none" stroke="#afafaf" d="M626.88 376.96V373.12"/>
<path transform="matrix(.75,0,0,.75,106.110019,28.179963)" stroke-width=".64" stroke-linecap="round" stroke-linejoin="round" fill="none" stroke="#afafaf" d="M0 0-.32 .16H-1.12L-1.44 0-1.76-.64V-1.76L-1.6-2.08-1.44-2.24-1.12-2.4H-.32L0-2.24"/>
<path transform="matrix(.75,0,0,.75,104.43002,32.73999)" stroke-width=".48" stroke-linecap="round" stroke-linejoin="round" fill="none" stroke="#afafaf" d="M0 0C0 1.12-.96 2.08-2.08 2.08-3.2 2.08-4 1.12-4 0-4-1.12-3.2-1.92-2.08-1.92-.96-1.92 0-1.12 0 0Z"/>
<path transform="matrix(.75,0,0,.75,106.35004,32.73999)" stroke-width=".48" stroke-linecap="round" stroke-linejoin="round" fill="none" stroke="#afafaf" d="M0 0C0 2.56-2.08 4.64-4.64 4.64-7.2 4.64-9.12 2.56-9.12 0-9.12-2.56-7.2-4.48-4.64-4.48-2.08-4.48 0-2.56 0 0Z"/>
<path transform="matrix(.75,0,0,.75,-364.05,-254.42002)" stroke-width=".8" stroke-linecap="round" stroke-linejoin="round" fill="none" stroke="#afafaf" d="M580.16 354.24H599.36"/>
<path transform="matrix(.75,0,0,.75,-364.05,-254.42002)" stroke-width=".8" stroke-linecap="round" stroke-linejoin="round" fill="none" stroke="#afafaf" d="M580.16 366.24V354.24"/>
<path transform="matrix(.75,0,0,.75,-364.05,-254.42002)" stroke-width=".8" stroke-linecap="round" stroke-linejoin="round" fill="none" stroke="#afafaf" d="M599.36 354.24V366.24"/>
<path transform="matrix(.75,0,0,.75,-364.05,-254.42002)" stroke-width=".8" stroke-linecap="round" stroke-linejoin="round" fill="none" stroke="#afafaf" d="M599.36 366.24H580.16"/>
<path transform="matrix(.75,0,0,.75,77.670047,7.0599977)" stroke-width=".96" stroke-linecap="round" stroke-linejoin="round" fill="none" stroke="#afafaf" d="M0 0-.32 .32-.96 .48H-1.44L-2.08 .32-2.56-.16-3.04-1.6V-2.24L-2.56-3.68-2.08-4.16-1.44-4.32H-.96L-.32-4.16 0-3.84"/>
<path transform="matrix(.75,0,0,.75,-364.05,-254.42002)" stroke-width=".96" stroke-linecap="round" stroke-linejoin="round" fill="none" stroke="#afafaf" d="M592.96 345.92V349.12"/>
<path transform="matrix(.75,0,0,.75,-364.05,-254.42002)" stroke-width=".96" stroke-linecap="round" stroke-linejoin="round" fill="none" stroke="#afafaf" d="M591.84 344.16 590.72 347.52H593.76"/>
<path transform="matrix(.75,0,0,.75,56.070009,70.899997)" stroke-width=".64" stroke-linecap="round" stroke-linejoin="round" fill="none" stroke="#afafaf" d="M0 0-.32-.16H-.8L-1.44 0-1.76 .48-1.92 .8-2.08 1.44V2.08L-1.92 2.72-1.76 3.2-1.44 3.52-.8 3.68H-.48L0 3.52 .16 3.36V2.08H-.48"/>
<path transform="matrix(.75,0,0,.75,-364.05,-254.42002)" stroke-width=".64" stroke-linecap="round" stroke-linejoin="round" fill="none" stroke="#afafaf" d="M562.08 434.88V437.44"/>
<path transform="matrix(.75,0,0,.75,-364.05,-254.42002)" stroke-width=".64" stroke-linecap="round" stroke-linejoin="round" fill="none" stroke="#afafaf" d="M562.08 435.2 562.24 435.04 562.56 434.88H563.04L563.52 435.04 563.68 435.52V437.44"/>
<path transform="matrix(.75,0,0,.75,-364.05,-254.42002)" stroke-width=".64" stroke-linecap="round" stroke-linejoin="round" fill="none" stroke="#afafaf" d="M567.04 437.44V433.6"/>
<path transform="matrix(.75,0,0,.75,61.22998,73.53998)" stroke-width=".64" stroke-linecap="round" stroke-linejoin="round" fill="none" stroke="#afafaf" d="M0 0-.32 .16H-1.12L-1.44 0-1.6-.16-1.76-.64V-1.6L-1.6-2.08-1.44-2.24-1.12-2.4H-.32L0-2.24"/>
<path transform="matrix(.75,0,0,.75,59.549989,78.21997)" stroke-width=".48" stroke-linecap="round" stroke-linejoin="round" fill="none" stroke="#afafaf" d="M0 0C0 1.12-.96 2.08-2.08 2.08-3.2 2.08-4 1.12-4 0-4-1.12-3.2-1.92-2.08-1.92-.96-1.92 0-1.12 0 0Z"/>
<path transform="matrix(.75,0,0,.75,61.47,78.21997)" stroke-width=".48" stroke-linecap="round" stroke-linejoin="round" fill="none" stroke="#afafaf" d="M0 0C0 2.56-2.08 4.64-4.64 4.64-7.2 4.64-9.12 2.56-9.12 0-9.12-2.56-7.2-4.48-4.64-4.48-2.08-4.48 0-2.56 0 0Z"/>
<path transform="matrix(.75,0,0,.75,-364.05,-254.42002)" stroke-width=".64" stroke-linecap="round" stroke-linejoin="round" fill="none" stroke="#afafaf" d="M568.64 448.8V451.36L568.48 452 568 452.32 567.52 452.48H567.2"/>
<path transform="matrix(.75,0,0,.75,65.07001,82.17996)" stroke-width=".64" stroke-linecap="round" stroke-linejoin="round" fill="none" stroke="#afafaf" d="M0 0H-1.76L-1.92 1.76-1.76 1.6-1.44 1.44H-.48L-.16 1.6 0 1.76 .16 2.08V3.04L0 3.36-.16 3.52-.48 3.68H-1.44L-1.76 3.52-1.92 3.36"/>
<path transform="matrix(.75,0,0,.75,54.630006,29.019989)" stroke-width=".96" stroke-linecap="round" stroke-linejoin="round" fill="none" stroke="#afafaf" d="M0 0-.32 .16-.96 .32H-1.44L-2.08 .16-2.56-.32-2.72-.8-3.04-1.6V-2.4L-2.72-3.2-2.56-3.68-2.08-4.16-1.44-4.48H-.96L0-4"/>
<path transform="matrix(.75,0,0,.75,-364.05,-254.42002)" stroke-width=".96" stroke-linecap="round" stroke-linejoin="round" fill="none" stroke="#afafaf" d="M562.72 378.24H560"/>
<path transform="matrix(.75,0,0,.75,-364.05,-254.42002)" stroke-width=".96" stroke-linecap="round" stroke-linejoin="round" fill="none" stroke="#afafaf" d="M561.44 378.24V373.44L560.96 374.24 560.48 374.72 560 374.88"/>
<path transform="matrix(.75,0,0,.75,-364.05,-254.42002)" stroke-width=".32" stroke-linecap="round" stroke-linejoin="round" fill="none" stroke="#afafaf" d="M538.4 379.04H547.84"/>
<path transform="matrix(.75,0,0,.75,-364.05,-254.42002)" stroke-width=".32" stroke-linecap="round" stroke-linejoin="round" fill="none" stroke="#afafaf" d="M547.84 355.2H538.4"/>
<path transform="matrix(.75,0,0,.75,-364.05,-254.42002)" stroke-width=".32" stroke-linecap="round" stroke-linejoin="round" fill="none" stroke="#afafaf" d="M547.84 379.04V355.2"/>
<path transform="matrix(.75,0,0,.75,-364.05,-254.42002)" stroke-width=".64" stroke-linecap="round" stroke-linejoin="round" fill="none" stroke="#afafaf" d="M544.8 367.68 543.04 368.96"/>
<path transform="matrix(.75,0,0,.75,44.549989,23.019989)" stroke-width=".64" stroke-linecap="round" stroke-linejoin="round" fill="none" stroke="#afafaf" d="M0 0H-3.68V-1.44L-3.52-1.92-3.36-2.08-3.04-2.24H-2.4L-2.08-2.08-1.92-1.92-1.76-1.44V0"/>
<path transform="matrix(.75,0,0,.75,42.03003,20.25998)" stroke-width=".64" stroke-linecap="round" stroke-linejoin="round" fill="none" stroke="#afafaf" d="M0 0-.16-.16-.32-.48V-1.44L-.16-1.76 0-1.92 .32-2.08H.64L1.28-1.92 3.36 .16V-2.08"/>
<path transform="matrix(.75,0,0,.75,36.27002,25.419983)" stroke-width=".64" stroke-linecap="round" stroke-linejoin="round" fill="none" stroke="#afafaf" d="M0 0-.16 .48-.32 .64-.8 .8H-.96L-1.28 .64-1.44 .48-1.6 0V-.64L-1.44-.96-.96-1.44H-.8L-.32-1.12-.16-.96 0-.64V0L.16 .48 .32 .64 .64 .8H1.44L1.76 .64 1.92 .48 2.08 0V-.64L1.92-.96 1.44-1.44H.64L.16-.96 0-.64"/>
<path transform="matrix(.75,0,0,.75,35.309999,23.25998)" stroke-width=".64" stroke-linecap="round" stroke-linejoin="round" fill="none" stroke="#afafaf" d="M0 0-.16-.16-.32-.48V-1.44L-.16-1.76 0-1.92 .32-2.08H.8L1.28-1.92 3.36 .32V-2.08"/>
<path transform="matrix(.75,0,0,.75,35.070009,19.899994)" stroke-width=".64" stroke-linecap="round" stroke-linejoin="round" fill="none" stroke="#afafaf" d="M0 0V-.32L.16-.64 .32-.8 .64-.96 1.44-1.28H2.24L3.04-.96 3.36-.8 3.52-.64 3.68-.32V0L3.52 .48 3.36 .64 3.04 .8 2.24 .96H1.44L.64 .8 .32 .64 .16 .48 0 0"/>
<path transform="matrix(.75,0,0,.75,37.830018,17.859986)" stroke-width=".64" stroke-linecap="round" stroke-linejoin="round" fill="none" stroke="#afafaf" d="M0 0V-.8H-.64L-.8-.48-1.28-.16-1.76 0H-2.56L-3.2-.16-3.52-.48-3.68-.96V-1.76L-3.52-2.24-3.2-2.56-2.56-2.88H-1.76L-.8-2.24-.64-1.92H0V-2.88"/>
<path transform="matrix(.75,0,0,.75,-364.05,-254.42002)" stroke-width=".32" stroke-linecap="round" stroke-linejoin="round" fill="none" stroke="#afafaf" d="M538.4 355.2V379.04"/>
<path transform="matrix(.75,0,0,.75,-364.05,-254.42002)" stroke-width=".32" stroke-linecap="round" stroke-linejoin="round" fill="none" stroke="#afafaf" d="M543.2 352.64V355.2"/>
<path transform="matrix(.75,0,0,.75,-364.05,-254.42002)" stroke-width=".32" stroke-linecap="round" stroke-linejoin="round" fill="none" stroke="#afafaf" d="M521.92 352.64V355.2"/>
<path transform="matrix(.75,0,0,.75,-364.05,-254.42002)" stroke-width=".64" stroke-linecap="round" stroke-linejoin="round" fill="none" stroke="#afafaf" d="M494.72 350.24V352.8"/>
<path transform="matrix(.75,0,0,.75,-364.05,-254.42002)" stroke-width=".64" stroke-linecap="round" stroke-linejoin="round" fill="none" stroke="#afafaf" d="M493.12 350.24V352.16L493.28 352.48 493.6 352.8H494.08L494.56 352.48 494.72 352.32"/>
<path transform="matrix(.75,0,0,.75,-364.05,-254.42002)" stroke-width=".64" stroke-linecap="round" stroke-linejoin="round" fill="none" stroke="#afafaf" d="M496.48 350.24V353.92"/>
<path transform="matrix(.75,0,0,.75,8.310028,8.379974)" stroke-width=".64" stroke-linecap="round" stroke-linejoin="round" fill="none" stroke="#afafaf" d="M0 0 .32-.16H1.12L1.44 0 1.6 .16 1.76 .48V1.6L1.6 1.92 1.12 2.4H.32L0 2.08"/>
<path transform="matrix(.75,0,0,.75,11.910004,9.940002)" stroke-width=".64" stroke-linecap="round" stroke-linejoin="round" fill="none" stroke="#afafaf" d="M0 0-.32 .32H-.96L-1.44 0-1.6-.32V-1.76L-1.44-2.08-.96-2.24H-.32L0-2.08 .32-1.76V-1.44L-1.6-.96"/>
<path transform="matrix(.75,0,0,.75,-364.05,-254.42002)" stroke-width=".64" stroke-linecap="round" stroke-linejoin="round" fill="none" stroke="#afafaf" d="M502.72 350.24 503.68 352.8 504.64 350.24"/>
<path transform="matrix(.75,0,0,.75,-364.05,-254.42002)" stroke-width=".64" stroke-linecap="round" stroke-linejoin="round" fill="none" stroke="#afafaf" d="M506.08 350.24V352.8"/>
<path transform="matrix(.75,0,0,.75,-364.05,-254.42002)" stroke-width=".64" stroke-linecap="round" stroke-linejoin="round" fill="none" stroke="#afafaf" d="M506.08 350.56 506.24 350.4 506.56 350.24H507.04L507.52 350.4 507.68 350.72V352.8"/>
<path transform="matrix(.75,0,0,.75,19.110016,9.940002)" stroke-width=".64" stroke-linecap="round" stroke-linejoin="round" fill="none" stroke="#afafaf" d="M0 0-.32 .32H-1.12L-1.44 0-1.6-.32V-1.76L-1.44-2.08-1.12-2.24H-.32L0-2.08 .16-1.76V-1.44L-1.6-.96"/>
<path transform="matrix(.75,0,0,.75,-364.05,-254.42002)" stroke-width=".64" stroke-linecap="round" stroke-linejoin="round" fill="none" stroke="#afafaf" d="M512.64 350.24V352.8"/>
<path transform="matrix(.75,0,0,.75,-364.05,-254.42002)" stroke-width=".64" stroke-linecap="round" stroke-linejoin="round" fill="none" stroke="#afafaf" d="M512.64 350.56 512.8 350.4 513.28 350.24H513.76L514.08 350.4 514.24 350.72V352.8"/>
<path transform="matrix(.75,0,0,.75,-364.05,-254.42002)" stroke-width=".64" stroke-linecap="round" stroke-linejoin="round" fill="none" stroke="#afafaf" d="M516.16 352.8V350.24"/>
<path transform="matrix(.75,0,0,.75,-364.05,-254.42002)" stroke-width=".64" stroke-linecap="round" stroke-linejoin="round" fill="none" stroke="#afafaf" d="M516.16 348.96 516 349.12 516.16 349.28 516.32 349.12 516.16 348.96V349.28"/>
<path transform="matrix(.75,0,0,.75,15.990021,14.619995)" stroke-width=".48" stroke-linecap="round" stroke-linejoin="round" fill="none" stroke="#afafaf" d="M0 0C0 1.12-.96 2.08-2.08 2.08-3.2 2.08-4 1.12-4 0-4-1.12-3.2-1.92-2.08-1.92-.96-1.92 0-1.12 0 0Z"/>
<path transform="matrix(.75,0,0,.75,17.910004,14.619995)" stroke-width=".48" stroke-linecap="round" stroke-linejoin="round" fill="none" stroke="#afafaf" d="M0 0C0 2.56-2.08 4.64-4.64 4.64-7.2 4.64-9.12 2.56-9.12 0-9.12-2.56-7.2-4.48-4.64-4.48-2.08-4.48 0-2.56 0 0Z"/>
<path transform="matrix(.75,0,0,.75,-364.05,-254.42002)" stroke-width=".64" stroke-linecap="round" stroke-linejoin="round" fill="none" stroke="#afafaf" d="M503.36 365.28V367.84L503.2 368.48 502.72 368.8 502.24 368.96H501.92"/>
<path transform="matrix(.75,0,0,.75,15.150024,20.73999)" stroke-width=".64" stroke-linecap="round" stroke-linejoin="round" fill="none" stroke="#afafaf" d="M0 0-.32-.16-.64-.8V-.96L-.48-1.28-.32-1.44 0-1.6H.8L1.12-1.44 1.28-1.28 1.44-.96V-.8L1.12-.16 .8 0H0L-.32 .16-.48 .32-.64 .64V1.44L-.48 1.76-.32 1.92 0 2.08H.8L1.12 1.92 1.28 1.76 1.44 1.44V.64L1.28 .32 1.12 .16 .8 0"/>
<path transform="matrix(.75,0,0,.75,19.470002,25.779999)" stroke-width=".64" stroke-linecap="round" stroke-linejoin="round" fill="none" stroke="#afafaf" d="M0 0-.48-.48V-1.44L0-1.92 .32-2.08H.64L1.28-1.92 3.36 .16V-2.08"/>
<path transform="matrix(.75,0,0,.75,-364.05,-254.42002)" stroke-width=".64" stroke-linecap="round" stroke-linejoin="round" fill="none" stroke="#afafaf" d="M510.88 370.24V367.68L514.72 369.28"/>
<path transform="matrix(.75,0,0,.75,-364.05,-254.42002)" stroke-width=".64" stroke-linecap="round" stroke-linejoin="round" fill="none" stroke="#afafaf" d="M514.72 366.24H510.88"/>
<path transform="matrix(.75,0,0,.75,-364.05,-254.42002)" stroke-width=".64" stroke-linecap="round" stroke-linejoin="round" fill="none" stroke="#afafaf" d="M513.28 365.92 514.72 364.8"/>
<path transform="matrix(.75,0,0,.75,-364.05,-254.42002)" stroke-width=".64" stroke-linecap="round" stroke-linejoin="round" fill="none" stroke="#afafaf" d="M512.16 364.8 513.6 366.24"/>
<path transform="matrix(.75,0,0,.75,21.98999,18.099976)" stroke-width=".64" stroke-linecap="round" stroke-linejoin="round" fill="none" stroke="#afafaf" d="M0 0V-.8H-.64L-1.28-.16-1.76 0H-2.72L-3.2-.16-3.52-.48-3.84-1.12V-1.76L-3.2-2.72-2.72-2.88H-1.76L-1.28-2.72-.96-2.24-.64-1.92H0V-2.88"/>
<path transform="matrix(.75,0,0,.75,10.470001,33.940004)" stroke-width=".48" stroke-linecap="round" stroke-linejoin="round" fill="none" stroke="#afafaf" d="M0 0C0 2.56-2.08 4.64-4.64 4.64-7.2 4.64-9.12 2.56-9.12 0-9.12-2.56-7.2-4.48-4.64-4.48-2.08-4.48 0-2.56 0 0Z"/>
<path transform="matrix(.75,0,0,.75,8.549988,33.940004)" stroke-width=".48" stroke-linecap="round" stroke-linejoin="round" fill="none" stroke="#afafaf" d="M0 0C0 1.12-.96 2.08-2.08 2.08-3.2 2.08-4 1.12-4 0-4-1.12-3.2-1.92-2.08-1.92-.96-1.92 0-1.12 0 0Z"/>
<path transform="matrix(.75,0,0,.75,-364.05,-254.42002)" stroke-width=".64" stroke-linecap="round" stroke-linejoin="round" fill="none" stroke="#afafaf" d="M493.44 373.92V376.64L493.28 377.12 492.96 377.44 492.48 377.6H492"/>
<path transform="matrix(.75,0,0,.75,7.110016,26.019989)" stroke-width=".64" stroke-linecap="round" stroke-linejoin="round" fill="none" stroke="#afafaf" d="M0 0H2.4L1.12 1.44H1.76L2.08 1.6 2.24 1.76 2.4 2.08V3.04L2.24 3.36 2.08 3.52 1.76 3.68H.64L0 3.36"/>
<path transform="matrix(.75,0,0,.75,-364.05,-254.42002)" stroke-width=".32" stroke-linecap="round" stroke-linejoin="round" fill="none" stroke="#afafaf" d="M517.28 355.2V379.04"/>
<path transform="matrix(.75,0,0,.75,-364.05,-254.42002)" stroke-width=".32" stroke-linecap="round" stroke-linejoin="round" fill="none" stroke="#afafaf" d="M517.28 379.04H526.72"/>
<path transform="matrix(.75,0,0,.75,-364.05,-254.42002)" stroke-width=".32" stroke-linecap="round" stroke-linejoin="round" fill="none" stroke="#afafaf" d="M521.92 381.44V379.04"/>
<path transform="matrix(.75,0,0,.75,-364.05,-254.42002)" stroke-width=".32" stroke-linecap="round" stroke-linejoin="round" fill="none" stroke="#afafaf" d="M526.72 355.2H517.28"/>
<path transform="matrix(.75,0,0,.75,-364.05,-254.42002)" stroke-width=".32" stroke-linecap="round" stroke-linejoin="round" fill="none" stroke="#afafaf" d="M526.72 379.04V355.2"/>
<path transform="matrix(.75,0,0,.75,-364.05,-254.42002)" stroke-width=".64" stroke-linecap="round" stroke-linejoin="round" fill="none" stroke="#afafaf" d="M523.68 367.68 521.92 368.96"/>
<path transform="matrix(.75,0,0,.75,28.710022,23.019989)" stroke-width=".64" stroke-linecap="round" stroke-linejoin="round" fill="none" stroke="#afafaf" d="M0 0H-3.84V-1.44L-3.52-1.92-3.36-2.08-3.04-2.24H-2.56L-2.08-2.08-1.92-1.92-1.76-1.44V0"/>
<path transform="matrix(.75,0,0,.75,-364.05,-254.42002)" stroke-width=".64" stroke-linecap="round" stroke-linejoin="round" fill="none" stroke="#afafaf" d="M523.68 364.16V366.24"/>
<path transform="matrix(.75,0,0,.75,-364.05,-254.42002)" stroke-width=".64" stroke-linecap="round" stroke-linejoin="round" fill="none" stroke="#afafaf" d="M523.68 365.12H519.84L520.48 365.6 520.8 365.92 520.96 366.24"/>
<path transform="matrix(.75,0,0,.75,-364.05,-254.42002)" stroke-width=".32" stroke-linecap="round" stroke-linejoin="round" fill="none" stroke="#afafaf" d="M517.28 417.12V440.96"/>
<path transform="matrix(.75,0,0,.75,-364.05,-254.42002)" stroke-width=".32" stroke-linecap="round" stroke-linejoin="round" fill="none" stroke="#afafaf" d="M517.28 440.96H526.72"/>
<path transform="matrix(.75,0,0,.75,-364.05,-254.42002)" stroke-width=".32" stroke-linecap="round" stroke-linejoin="round" fill="none" stroke="#afafaf" d="M526.72 440.96V417.12"/>
<path transform="matrix(.75,0,0,.75,-364.05,-254.42002)" stroke-width=".64" stroke-linecap="round" stroke-linejoin="round" fill="none" stroke="#afafaf" d="M523.68 429.76 521.92 430.88"/>
<path transform="matrix(.75,0,0,.75,28.710022,69.45999)" stroke-width=".64" stroke-linecap="round" stroke-linejoin="round" fill="none" stroke="#afafaf" d="M0 0H-3.84V-1.44L-3.36-1.92-3.04-2.08H-2.56L-2.08-1.92-1.92-1.76-1.76-1.44V0"/>
<path transform="matrix(.75,0,0,.75,25.830018,66.94)" stroke-width=".64" stroke-linecap="round" stroke-linejoin="round" fill="none" stroke="#afafaf" d="M0 0V-2.4L1.44-1.12V-1.6L1.76-2.08 1.92-2.24 2.24-2.4H3.2L3.52-2.24 3.68-2.08 3.84-1.6V-.64L3.68-.16 3.52 0"/>
<path transform="matrix(.75,0,0,.75,-364.05,-254.42002)" stroke-width=".32" stroke-linecap="round" stroke-linejoin="round" fill="none" stroke="#afafaf" d="M536.16 417.12V440.96"/>
<path transform="matrix(.75,0,0,.75,5.1900026,43.660005)" stroke-width=".64" stroke-linecap="round" stroke-linejoin="round" fill="none" stroke="#afafaf" d="M0 0-.32-.16H-.96L-1.44 0-1.76 .48-1.92 .8-2.08 1.44V2.08L-1.92 2.72-1.76 3.2-1.44 3.52-.96 3.68H-.48L0 3.52 .16 3.36V2.08H-.48"/>
<path transform="matrix(.75,0,0,.75,-364.05,-254.42002)" stroke-width=".64" stroke-linecap="round" stroke-linejoin="round" fill="none" stroke="#afafaf" d="M494.08 398.56V401.12"/>
<path transform="matrix(.75,0,0,.75,-364.05,-254.42002)" stroke-width=".64" stroke-linecap="round" stroke-linejoin="round" fill="none" stroke="#afafaf" d="M494.08 398.88 494.24 398.72 494.72 398.56H495.2L495.52 398.72 495.68 399.2V401.12"/>
<path transform="matrix(.75,0,0,.75,-364.05,-254.42002)" stroke-width=".64" stroke-linecap="round" stroke-linejoin="round" fill="none" stroke="#afafaf" d="M499.2 401.12V397.28"/>
<path transform="matrix(.75,0,0,.75,10.350037,46.299989)" stroke-width=".64" stroke-linecap="round" stroke-linejoin="round" fill="none" stroke="#afafaf" d="M0 0-.32 .16H-1.12L-1.44 0-1.6-.16-1.76-.64V-1.6L-1.6-2.08-1.44-2.24-1.12-2.4H-.32L0-2.24"/>
<path transform="matrix(.75,0,0,.75,8.549988,50.98001)" stroke-width=".48" stroke-linecap="round" stroke-linejoin="round" fill="none" stroke="#afafaf" d="M0 0C0 1.12-.96 2.08-2.08 2.08-3.2 2.08-4 1.12-4 0-4-1.12-3.2-1.92-2.08-1.92-.96-1.92 0-1.12 0 0Z"/>
<path transform="matrix(.75,0,0,.75,10.470001,50.98001)" stroke-width=".48" stroke-linecap="round" stroke-linejoin="round" fill="none" stroke="#afafaf" d="M0 0C0 2.56-2.08 4.64-4.64 4.64-7.2 4.64-9.12 2.56-9.12 0-9.12-2.56-7.2-4.48-4.64-4.48-2.08-4.48 0-2.56 0 0Z"/>
<path transform="matrix(.75,0,0,.75,-364.05,-254.42002)" stroke-width=".64" stroke-linecap="round" stroke-linejoin="round" fill="none" stroke="#afafaf" d="M493.44 413.6V416.32L493.28 416.8 492.96 417.12 492.48 417.28H492"/>
<path transform="matrix(.75,0,0,.75,-364.05,-254.42002)" stroke-width=".64" stroke-linecap="round" stroke-linejoin="round" fill="none" stroke="#afafaf" d="M496.96 414.88V417.28"/>
<path transform="matrix(.75,0,0,.75,-364.05,-254.42002)" stroke-width=".64" stroke-linecap="round" stroke-linejoin="round" fill="none" stroke="#afafaf" d="M496 413.44 495.2 416.16H497.44"/>
<path transform="matrix(.75,0,0,.75,-364.05,-254.42002)" stroke-width=".64" stroke-linecap="round" stroke-linejoin="round" fill="none" stroke="#afafaf" d="M492.8 393.92V390.08"/>
<path transform="matrix(.75,0,0,.75,-364.05,-254.42002)" stroke-width=".64" stroke-linecap="round" stroke-linejoin="round" fill="none" stroke="#afafaf" d="M494.56 393.92V390.08L496.8 393.92V390.08"/>
<path transform="matrix(.75,0,0,.75,19.110016,73.06)" stroke-width=".64" stroke-linecap="round" stroke-linejoin="round" fill="none" stroke="#afafaf" d="M0 0V-2.24L1.44-.96V-1.6L1.92-2.08 2.24-2.24H3.2L3.52-2.08 3.68-1.92 3.84-1.6V-.48L3.68-.16 3.52 0"/>
<path transform="matrix(.75,0,0,.75,-364.05,-254.42002)" stroke-width=".64" stroke-linecap="round" stroke-linejoin="round" fill="none" stroke="#afafaf" d="M514.56 432.64H514.72L515.04 432.8 515.2 432.96"/>
<path transform="matrix(.75,0,0,.75,21.98999,68.619998)" stroke-width=".64" stroke-linecap="round" stroke-linejoin="round" fill="none" stroke="#afafaf" d="M0 0V-.64L-.32-1.28-.96-1.6-1.6-1.76H-3.04L-3.36-1.6-3.52-1.44-3.84-.96V-.32L-3.04 .48H-2.08L-1.6 0-1.44-.32V-.96L-1.6-1.44-1.76-1.6-2.08-1.76"/>
<path transform="matrix(.75,0,0,.75,-364.05,-254.42002)" stroke-width=".64" stroke-linecap="round" stroke-linejoin="round" fill="none" stroke="#afafaf" d="M514.72 427.36H510.88"/>
<path transform="matrix(.75,0,0,.75,-364.05,-254.42002)" stroke-width=".64" stroke-linecap="round" stroke-linejoin="round" fill="none" stroke="#afafaf" d="M513.28 427.04 514.72 425.92"/>
<path transform="matrix(.75,0,0,.75,-364.05,-254.42002)" stroke-width=".64" stroke-linecap="round" stroke-linejoin="round" fill="none" stroke="#afafaf" d="M512.16 425.92 513.6 427.36"/>
<path transform="matrix(.75,0,0,.75,21.98999,63.940004)" stroke-width=".64" stroke-linecap="round" stroke-linejoin="round" fill="none" stroke="#afafaf" d="M0 0V-.96H-.64L-.96-.48-1.28-.16-1.76 0H-2.72L-3.2-.16-3.52-.48-3.84-1.12V-1.76L-3.52-2.4-3.2-2.72-2.72-2.88H-1.76L-1.28-2.72-.96-2.4-.64-1.92H0V-2.88"/>
<path transform="matrix(.75,0,0,.75,-364.05,-254.42002)" stroke-width=".64" stroke-linecap="round" stroke-linejoin="round" fill="none" stroke="#afafaf" d="M494.72 425.76V428.32"/>
<path transform="matrix(.75,0,0,.75,-364.05,-254.42002)" stroke-width=".64" stroke-linecap="round" stroke-linejoin="round" fill="none" stroke="#afafaf" d="M493.12 425.76V427.84L493.28 428.16 493.6 428.32H494.08L494.56 428.16 494.72 428"/>
<path transform="matrix(.75,0,0,.75,-364.05,-254.42002)" stroke-width=".64" stroke-linecap="round" stroke-linejoin="round" fill="none" stroke="#afafaf" d="M496.48 425.76V429.6"/>
<path transform="matrix(.75,0,0,.75,8.310028,65.01999)" stroke-width=".64" stroke-linecap="round" stroke-linejoin="round" fill="none" stroke="#afafaf" d="M0 0 .32-.16H1.12L1.44 0 1.6 .16 1.76 .64V1.6L1.6 2.08 1.44 2.24 1.12 2.4H.32L0 2.24"/>
<path transform="matrix(.75,0,0,.75,11.910004,66.69998)" stroke-width=".64" stroke-linecap="round" stroke-linejoin="round" fill="none" stroke="#afafaf" d="M0 0-.32 .16H-.96L-1.44 0-1.6-.32V-1.76L-1.44-2.24-.96-2.4H-.32L0-2.24 .32-1.76V-1.44L-1.6-1.12"/>
<path transform="matrix(.75,0,0,.75,-364.05,-254.42002)" stroke-width=".64" stroke-linecap="round" stroke-linejoin="round" fill="none" stroke="#afafaf" d="M502.72 425.76 503.68 428.32 504.64 425.76"/>
<path transform="matrix(.75,0,0,.75,-364.05,-254.42002)" stroke-width=".64" stroke-linecap="round" stroke-linejoin="round" fill="none" stroke="#afafaf" d="M506.08 425.76V428.32"/>
<path transform="matrix(.75,0,0,.75,-364.05,-254.42002)" stroke-width=".64" stroke-linecap="round" stroke-linejoin="round" fill="none" stroke="#afafaf" d="M506.08 426.08 506.24 425.92 506.56 425.76H507.04L507.52 425.92 507.68 426.4V428.32"/>
<path transform="matrix(.75,0,0,.75,19.110016,66.69998)" stroke-width=".64" stroke-linecap="round" stroke-linejoin="round" fill="none" stroke="#afafaf" d="M0 0-.32 .16H-1.12L-1.44 0-1.6-.32V-1.76L-1.44-2.24-1.12-2.4H-.32L0-2.24 .16-1.76V-1.44L-1.6-1.12"/>
<path transform="matrix(.75,0,0,.75,-364.05,-254.42002)" stroke-width=".64" stroke-linecap="round" stroke-linejoin="round" fill="none" stroke="#afafaf" d="M512.64 425.76V428.32"/>
<path transform="matrix(.75,0,0,.75,-364.05,-254.42002)" stroke-width=".64" stroke-linecap="round" stroke-linejoin="round" fill="none" stroke="#afafaf" d="M512.64 426.08 512.8 425.92 513.28 425.76H513.76L514.08 425.92 514.24 426.4V428.32"/>
<path transform="matrix(.75,0,0,.75,-364.05,-254.42002)" stroke-width=".64" stroke-linecap="round" stroke-linejoin="round" fill="none" stroke="#afafaf" d="M516.16 428.32V425.76"/>
<path transform="matrix(.75,0,0,.75,-364.05,-254.42002)" stroke-width=".64" stroke-linecap="round" stroke-linejoin="round" fill="none" stroke="#afafaf" d="M516.16 424.48 516 424.64 516.16 424.96 516.32 424.64 516.16 424.48V424.96"/>
<path transform="matrix(.75,0,0,.75,15.990021,71.379978)" stroke-width=".48" stroke-linecap="round" stroke-linejoin="round" fill="none" stroke="#afafaf" d="M0 0C0 1.12-.96 2.08-2.08 2.08-3.2 2.08-4 1.12-4 0-4-1.12-3.2-1.92-2.08-1.92-.96-1.92 0-1.12 0 0Z"/>
<path transform="matrix(.75,0,0,.75,17.910004,71.379978)" stroke-width=".48" stroke-linecap="round" stroke-linejoin="round" fill="none" stroke="#afafaf" d="M0 0C0 2.56-2.08 4.64-4.64 4.64-7.2 4.64-9.12 2.56-9.12 0-9.12-2.56-7.2-4.48-4.64-4.48-2.08-4.48 0-2.56 0 0Z"/>
<path transform="matrix(.75,0,0,.75,-364.05,-254.42002)" stroke-width=".64" stroke-linecap="round" stroke-linejoin="round" fill="none" stroke="#afafaf" d="M503.36 440.8V443.52L503.2 444 502.24 444.64H501.92"/>
<path transform="matrix(.75,0,0,.75,14.910004,79.06)" stroke-width=".64" stroke-linecap="round" stroke-linejoin="round" fill="none" stroke="#afafaf" d="M0 0H.8L1.28-.48 1.6-.96 1.76-1.76V-3.2L1.6-3.52 1.44-3.68 1.12-3.84H.32L0-3.68-.16-3.52-.32-3.2V-2.24L-.16-1.92 .32-1.44H1.12L1.6-1.92 1.76-2.24"/>
<path transform="matrix(.75,0,0,.75,-364.05,-254.42002)" stroke-width=".32" stroke-linecap="round" stroke-linejoin="round" fill="none" stroke="#afafaf" d="M521.92 443.52V440.96"/>
<path transform="matrix(.75,0,0,.75,34.590028,70.66)" stroke-width=".64" stroke-linecap="round" stroke-linejoin="round" fill="none" stroke="#afafaf" d="M0 0-.16 .32-.8 .64H-.96L-1.28 .48-1.44 .32-1.6 0V-.8L-1.44-1.12-1.28-1.28-.96-1.44H-.8L-.16-1.12 0-.8V0L.16 .32 .32 .48 .64 .64H1.44L1.76 .48 1.92 .32 2.08 0V-.8L1.92-1.12 1.76-1.28 1.44-1.44H.64L.32-1.28 .16-1.12 0-.8"/>
<path transform="matrix(.75,0,0,.75,33.630006,68.49997)" stroke-width=".64" stroke-linecap="round" stroke-linejoin="round" fill="none" stroke="#afafaf" d="M0 0-.16-.16-.32-.64V-1.44L0-2.08 .32-2.24H.64L1.28-2.08 3.36 .16V-2.24"/>
<path transform="matrix(.75,0,0,.75,36.149995,65.73999)" stroke-width=".64" stroke-linecap="round" stroke-linejoin="round" fill="none" stroke="#afafaf" d="M0 0V-.8H-.64L-.8-.48-1.28-.16-1.76 0H-2.72L-3.2-.16-3.52-.48-3.68-.96V-1.76L-3.52-2.24-3.2-2.72-2.72-2.88H-1.76L-1.28-2.72-.8-2.24-.64-1.92H0V-2.88"/>
<path transform="matrix(.75,0,0,.75,-364.05,-254.42002)" stroke-width=".32" stroke-linecap="round" stroke-linejoin="round" fill="none" stroke="#afafaf" d="M536.16 440.96H545.6"/>
<path transform="matrix(.75,0,0,.75,-364.05,-254.42002)" stroke-width=".32" stroke-linecap="round" stroke-linejoin="round" fill="none" stroke="#afafaf" d="M540.8 443.52V440.96"/>
<path transform="matrix(.75,0,0,.75,-364.05,-254.42002)" stroke-width=".32" stroke-linecap="round" stroke-linejoin="round" fill="none" stroke="#afafaf" d="M545.6 440.96V417.12"/>
<path transform="matrix(.75,0,0,.75,-364.05,-254.42002)" stroke-width=".64" stroke-linecap="round" stroke-linejoin="round" fill="none" stroke="#afafaf" d="M542.56 429.76 540.8 431.04"/>
<path transform="matrix(.75,0,0,.75,42.869997,69.45999)" stroke-width=".64" stroke-linecap="round" stroke-linejoin="round" fill="none" stroke="#afafaf" d="M0 0H-3.68V-1.44L-3.52-1.76-3.36-1.92-3.04-2.08H-2.56L-2.08-1.92-1.92-1.76-1.76-1.44V0"/>
<path transform="matrix(.75,0,0,.75,-364.05,-254.42002)" stroke-width=".64" stroke-linecap="round" stroke-linejoin="round" fill="none" stroke="#afafaf" d="M540 426.56H542.56"/>
<path transform="matrix(.75,0,0,.75,-364.05,-254.42002)" stroke-width=".64" stroke-linecap="round" stroke-linejoin="round" fill="none" stroke="#afafaf" d="M538.56 427.36 541.28 428.32V425.92"/>
<path transform="matrix(.75,0,0,.75,51.03003,56.25998)" stroke-width=".64" stroke-linecap="round" stroke-linejoin="round" fill="none" stroke="#afafaf" d="M0 0 .16-.48 .8-.8H1.28L1.92-.48 2.08-.16V1.28H-1.76V0L-1.6-.32-1.44-.48-.96-.64H-.64L-.32-.48-.16-.32 0 0V1.28"/>
<path transform="matrix(.75,0,0,.75,52.22998,52.78)" stroke-width=".64" stroke-linecap="round" stroke-linejoin="round" fill="none" stroke="#afafaf" d="M0 0 .32 .16 .48 .8V1.12L.32 1.6-.16 2.08-.48 2.24-1.12 2.4H-1.76L-2.4 2.24-2.88 2.08-3.2 1.6-3.36 1.12V.8L-3.2 .16-3.04 0"/>
<path transform="matrix(.75,0,0,.75,49.710023,50.25998)" stroke-width=".64" stroke-linecap="round" stroke-linejoin="round" fill="none" stroke="#afafaf" d="M0 0V1.76L1.76 1.92 1.6 1.76 1.44 1.44V.48L1.6 .16 1.76 0 2.24-.16H3.04L3.68 .16 3.84 .48V1.44L3.68 1.76 3.36 1.92"/>
<path transform="matrix(.75,0,0,.75,-364.05,-254.42002)" stroke-width=".64" stroke-linecap="round" stroke-linejoin="round" fill="none" stroke="#afafaf" d="M552.96 402.72H555.52"/>
<path transform="matrix(.75,0,0,.75,-364.05,-254.42002)" stroke-width=".64" stroke-linecap="round" stroke-linejoin="round" fill="none" stroke="#afafaf" d="M551.52 403.68 554.24 404.64V402.24"/>
<path transform="matrix(.75,0,0,.75,-364.05,-254.42002)" stroke-width=".64" stroke-linecap="round" stroke-linejoin="round" fill="none" stroke="#afafaf" d="M551.68 401.12V398.72L555.52 400.32"/>
<path transform="matrix(.75,0,0,.75,52.22998,41.859987)" stroke-width=".64" stroke-linecap="round" stroke-linejoin="round" fill="none" stroke="#afafaf" d="M0 0 .32 .16 .48 .8V1.12L.32 1.6-.16 1.92-.48 2.24-1.12 2.4H-1.76L-2.4 2.24-2.88 1.92-3.2 1.6-3.36 1.12V.8L-3.2 .16-3.04 0"/>
<path transform="matrix(.75,0,0,.75,-364.05,-254.42002)" stroke-width=".32" stroke-linecap="round" stroke-linejoin="round" fill="none" stroke="#afafaf" d="M557.76 398.88V412"/>
<path transform="matrix(.75,0,0,.75,-364.05,-254.42002)" stroke-width=".32" stroke-linecap="round" stroke-linejoin="round" fill="none" stroke="#afafaf" d="M540.8 414.72V417.12"/>
<path transform="matrix(.75,0,0,.75,-364.05,-254.42002)" stroke-width=".32" stroke-linecap="round" stroke-linejoin="round" fill="none" stroke="#afafaf" d="M545.6 417.12H536.16"/>
<path transform="matrix(.75,0,0,.75,62.79001,10.059998)" stroke-width=".16" stroke-linecap="butt" stroke-miterlimit="10" stroke-linejoin="miter" fill="none" stroke="#ff26e2" d="M0 0C0 3.52-3.04 6.56-6.56 6.56-10.08 6.56-12.96 3.52-12.96 0-12.96-3.52-10.08-6.4-6.56-6.4-3.04-6.4 0-3.52 0 0Z"/>
<path transform="matrix(.75,0,0,.75,-364.05,-254.42002)" stroke-width=".16" stroke-linecap="butt" stroke-miterlimit="10" stroke-linejoin="miter" fill="none" stroke="#ff26e2" d="M537.44 348.64V385.44"/>
<path transform="matrix(.75,0,0,.75,-364.05,-254.42002)" stroke-width=".16" stroke-linecap="butt" stroke-miterlimit="10" stroke-linejoin="miter" fill="none" stroke="#ff26e2" d="M537.44 385.44H548.8"/>
<path transform="matrix(.75,0,0,.75,-364.05,-254.42002)" stroke-width=".16" stroke-linecap="butt" stroke-miterlimit="10" stroke-linejoin="miter" fill="none" stroke="#ff26e2" d="M548.8 348.64H537.44"/>
<path transform="matrix(.75,0,0,.75,-364.05,-254.42002)" stroke-width=".16" stroke-linecap="butt" stroke-miterlimit="10" stroke-linejoin="miter" fill="none" stroke="#ff26e2" d="M548.8 385.44V348.64"/>
<path transform="matrix(.75,0,0,.75,-364.05,-254.42002)" stroke-width=".16" stroke-linecap="butt" stroke-miterlimit="10" stroke-linejoin="miter" fill="none" stroke="#ff26e2" d="M516.32 410.72V447.36"/>
<path transform="matrix(.75,0,0,.75,-364.05,-254.42002)" stroke-width=".16" stroke-linecap="butt" stroke-miterlimit="10" stroke-linejoin="miter" fill="none" stroke="#ff26e2" d="M516.32 447.36H527.68"/>
<path transform="matrix(.75,0,0,.75,-364.05,-254.42002)" stroke-width=".16" stroke-linecap="butt" stroke-miterlimit="10" stroke-linejoin="miter" fill="none" stroke="#ff26e2" d="M527.68 447.36V410.72"/>
<path transform="matrix(.75,0,0,.75,-364.05,-254.42002)" stroke-width=".16" stroke-linecap="butt" stroke-miterlimit="10" stroke-linejoin="miter" fill="none" stroke="#ff26e2" d="M535.2 410.72V447.52"/>
<path transform="matrix(.75,0,0,.75,-364.05,-254.42002)" stroke-width=".16" stroke-linecap="butt" stroke-miterlimit="10" stroke-linejoin="miter" fill="none" stroke="#ff26e2" d="M535.2 447.52H546.56"/>
<path transform="matrix(.75,0,0,.75,-364.05,-254.42002)" stroke-width=".16" stroke-linecap="butt" stroke-miterlimit="10" stroke-linejoin="miter" fill="none" stroke="#ff26e2" d="M546.56 447.52V410.72"/>
<path transform="matrix(.75,0,0,.75,11.910004,50.98001)" stroke-width=".16" stroke-linecap="butt" stroke-miterlimit="10" stroke-linejoin="miter" fill="none" stroke="#ff26e2" d="M0 0C0 3.52-3.04 6.56-6.56 6.56-10.08 6.56-12.96 3.52-12.96 0-12.96-3.52-10.08-6.4-6.56-6.4-3.04-6.4 0-3.52 0 0Z"/>
<path transform="matrix(.75,0,0,.75,-364.05,-254.42002)" stroke-width=".16" stroke-linecap="butt" stroke-miterlimit="10" stroke-linejoin="miter" fill="none" stroke="#ff26e2" d="M527.68 410.72H516.32"/>
<path transform="matrix(.75,0,0,.75,19.350037,71.379978)" stroke-width=".16" stroke-linecap="butt" stroke-miterlimit="10" stroke-linejoin="miter" fill="none" stroke="#ff26e2" d="M0 0C0 3.52-3.04 6.56-6.56 6.56-10.08 6.56-12.96 3.52-12.96 0-12.96-3.52-10.08-6.4-6.56-6.4-3.04-6.4 0-3.52 0 0Z"/>
<path transform="matrix(.75,0,0,.75,11.910004,33.940004)" stroke-width=".16" stroke-linecap="butt" stroke-miterlimit="10" stroke-linejoin="miter" fill="none" stroke="#ff26e2" d="M0 0C0 3.52-3.04 6.56-6.56 6.56-10.08 6.56-12.96 3.52-12.96 0-12.96-3.52-10.08-6.4-6.56-6.4-3.04-6.4 0-3.52 0 0Z"/>
<path transform="matrix(.75,0,0,.75,104.31,71.379978)" stroke-width=".16" stroke-linecap="butt" stroke-miterlimit="10" stroke-linejoin="miter" fill="none" stroke="#ff26e2" d="M0 0C0 3.52-3.04 6.56-6.56 6.56-10.08 6.56-12.96 3.52-12.96 0-12.96-3.52-10.08-6.4-6.56-6.4-3.04-6.4 0-3.52 0 0Z"/>
<path transform="matrix(.75,0,0,.75,107.79001,48.69998)" stroke-width=".16" stroke-linecap="butt" stroke-miterlimit="10" stroke-linejoin="miter" fill="none" stroke="#ff26e2" d="M0 0C0 3.52-3.04 6.56-6.56 6.56-10.08 6.56-12.96 3.52-12.96 0-12.96-3.52-10.08-6.4-6.56-6.4-3.04-6.4 0-3.52 0 0Z"/>
<path transform="matrix(.75,0,0,.75,-364.05,-254.42002)" stroke-width=".16" stroke-linecap="butt" stroke-miterlimit="10" stroke-linejoin="miter" fill="none" stroke="#ff26e2" d="M577.76 392H556.64"/>
<path transform="matrix(.75,0,0,.75,107.79001,32.73999)" stroke-width=".16" stroke-linecap="butt" stroke-miterlimit="10" stroke-linejoin="miter" fill="none" stroke="#ff26e2" d="M0 0C0 3.52-3.04 6.56-6.56 6.56-10.08 6.56-12.96 3.52-12.96 0-12.96-3.52-10.08-6.4-6.56-6.4-3.04-6.4 0-3.52 0 0Z"/>
<path transform="matrix(.75,0,0,.75,62.910036,78.21997)" stroke-width=".16" stroke-linecap="butt" stroke-miterlimit="10" stroke-linejoin="miter" fill="none" stroke="#ff26e2" d="M0 0C0 3.52-3.04 6.56-6.56 6.56-10.08 6.56-12.96 3.52-12.96 0-12.96-3.52-10.08-6.4-6.56-6.4-3.04-6.4 0-3.52 0 0Z"/>
<path transform="matrix(.75,0,0,.75,-364.05,-254.42002)" stroke-width=".16" stroke-linecap="butt" stroke-miterlimit="10" stroke-linejoin="miter" fill="none" stroke="#ff26e2" d="M556.64 418.88V392"/>
<path transform="matrix(.75,0,0,.75,-364.05,-254.42002)" stroke-width=".16" stroke-linecap="butt" stroke-miterlimit="10" stroke-linejoin="miter" fill="none" stroke="#ff26e2" d="M556.64 418.88H577.76"/>
<path transform="matrix(.75,0,0,.75,-364.05,-254.42002)" stroke-width=".16" stroke-linecap="butt" stroke-miterlimit="10" stroke-linejoin="miter" fill="none" stroke="#ff26e2" d="M577.76 392V418.88"/>
<path transform="matrix(.75,0,0,.75,-364.05,-254.42002)" stroke-width=".16" stroke-linecap="butt" stroke-miterlimit="10" stroke-linejoin="miter" fill="none" stroke="#ff26e2" d="M546.56 410.72H535.2"/>
<path transform="matrix(.75,0,0,.75,104.31,14.619995)" stroke-width=".16" stroke-linecap="butt" stroke-miterlimit="10" stroke-linejoin="miter" fill="none" stroke="#ff26e2" d="M0 0C0 3.52-3.04 6.56-6.56 6.56-10.08 6.56-12.96 3.52-12.96 0-12.96-3.52-10.08-6.4-6.56-6.4-3.04-6.4 0-3.52 0 0Z"/>
<path transform="matrix(.75,0,0,.75,-364.05,-254.42002)" stroke-width=".32" stroke-linecap="round" stroke-linejoin="round" fill="none" stroke="#ff26e2" d="M576.32 350.56H603.04"/>
<path transform="matrix(.75,0,0,.75,-364.05,-254.42002)" stroke-width=".32" stroke-linecap="round" stroke-linejoin="round" fill="none" stroke="#ff26e2" d="M576.32 370.08V350.56"/>
<path transform="matrix(.75,0,0,.75,-364.05,-254.42002)" stroke-width=".32" stroke-linecap="round" stroke-linejoin="round" fill="none" stroke="#ff26e2" d="M603.04 350.56V370.08"/>
<path transform="matrix(.75,0,0,.75,-364.05,-254.42002)" stroke-width=".32" stroke-linecap="round" stroke-linejoin="round" fill="none" stroke="#ff26e2" d="M603.04 370.08H576.32"/>
<path transform="matrix(.75,0,0,.75,19.350037,14.619995)" stroke-width=".16" stroke-linecap="butt" stroke-miterlimit="10" stroke-linejoin="miter" fill="none" stroke="#ff26e2" d="M0 0C0 3.52-3.04 6.56-6.56 6.56-10.08 6.56-12.96 3.52-12.96 0-12.96-3.52-10.08-6.4-6.56-6.4-3.04-6.4 0-3.52 0 0Z"/>
<path transform="matrix(.75,0,0,.75,-364.05,-254.42002)" stroke-width=".16" stroke-linecap="butt" stroke-miterlimit="10" stroke-linejoin="miter" fill="none" stroke="#ff26e2" d="M516.32 348.64V385.44"/>
<path transform="matrix(.75,0,0,.75,-364.05,-254.42002)" stroke-width=".16" stroke-linecap="butt" stroke-miterlimit="10" stroke-linejoin="miter" fill="none" stroke="#ff26e2" d="M516.32 385.44H527.68"/>
<path transform="matrix(.75,0,0,.75,-364.05,-254.42002)" stroke-width=".16" stroke-linecap="butt" stroke-miterlimit="10" stroke-linejoin="miter" fill="none" stroke="#ff26e2" d="M527.68 348.64H516.32"/>
<path transform="matrix(.75,0,0,.75,-364.05,-254.42002)" stroke-width=".16" stroke-linecap="butt" stroke-miterlimit="10" stroke-linejoin="miter" fill="none" stroke="#ff26e2" d="M527.68 385.44V348.64"/>
<path transform="matrix(.75,0,0,.75,-364.05,-254.42002)" d="M553.12 379.2H557.44V383.68H553.12ZM519.84 395.2H524.16V399.52H519.84Z" fill="#d864ff" fill-rule="evenodd"/>
<path transform="matrix(.75,0,0,.75,23.549988,43.539979)" d="M0 0C0 1.28-1.12 2.4-2.4 2.4-3.68 2.4-4.64 1.28-4.64 0-4.64-1.28-3.68-2.24-2.4-2.24-1.12-2.24 0-1.28 0 0Z" fill="#d864ff"/>
<path transform="matrix(.75,0,0,.75,43.950014,56.619997)" d="M0 0C0 1.76-1.44 3.2-3.2 3.2-4.96 3.2-6.24 1.76-6.24 0-6.24-1.76-4.96-3.04-3.2-3.04-1.44-3.04 0-1.76 0 0Z" fill="#d864ff"/>
<path transform="matrix(.75,0,0,.75,85.35004,47.379976)" d="M0 0C0 1.28-1.12 2.4-2.4 2.4-3.68 2.4-4.64 1.28-4.64 0-4.64-1.28-3.68-2.24-2.4-2.24-1.12-2.24 0-1.28 0 0Z" fill="#d864ff"/>
<path transform="matrix(.75,0,0,.75,102.869998,71.379978)" d="M0 0C0 2.56-2.08 4.64-4.64 4.64-7.2 4.64-9.12 2.56-9.12 0-9.12-2.56-7.2-4.48-4.64-4.48-2.08-4.48 0-2.56 0 0Z" fill="#d864ff"/>
<path transform="matrix(.75,0,0,.75,106.35004,48.69998)" d="M0 0C0 2.56-2.08 4.64-4.64 4.64-7.2 4.64-9.12 2.56-9.12 0-9.12-2.56-7.2-4.48-4.64-4.48-2.08-4.48 0-2.56 0 0Z" fill="#d864ff"/>
<path transform="matrix(.75,0,0,.75,61.47,56.859987)" d="M0 0C0 1.6-1.44 3.04-3.04 3.04-4.64 3.04-5.92 1.6-5.92 0-5.92-1.6-4.64-2.88-3.04-2.88-1.44-2.88 0-1.6 0 0Z" fill="#d864ff"/>
<path transform="matrix(.75,0,0,.75,61.47,78.21997)" d="M0 0C0 2.56-2.08 4.64-4.64 4.64-7.2 4.64-9.12 2.56-9.12 0-9.12-2.56-7.2-4.48-4.64-4.48-2.08-4.48 0-2.56 0 0Z" fill="#d864ff"/>
<path transform="matrix(.75,0,0,.75,61.350038,10.059998)" d="M0 0C0 2.56-2.08 4.64-4.64 4.64-7.2 4.64-9.12 2.56-9.12 0-9.12-2.56-7.2-4.48-4.64-4.48-2.08-4.48 0-2.56 0 0Z" fill="#d864ff"/>
<path transform="matrix(.75,0,0,.75,59.79001,31.660004)" d="M0 0C0 1.28-1.12 2.4-2.4 2.4-3.68 2.4-4.64 1.28-4.64 0-4.64-1.28-3.68-2.24-2.4-2.24-1.12-2.24 0-1.28 0 0Z" fill="#d864ff"/>
<path transform="matrix(.75,0,0,.75,45.75003,10.059998)" d="M0 0C0 1.76-1.44 3.2-3.2 3.2-4.96 3.2-6.24 1.76-6.24 0-6.24-1.76-4.96-3.04-3.2-3.04-1.44-3.04 0-1.76 0 0Z" fill="#d864ff"/>
<path transform="matrix(.75,0,0,.75,45.75003,31.660004)" d="M0 0C0 1.76-1.44 3.2-3.2 3.2-4.96 3.2-6.24 1.76-6.24 0-6.24-1.76-4.96-3.04-3.2-3.04-1.44-3.04 0-1.76 0 0Z" fill="#d864ff"/>
<path transform="matrix(.75,0,0,.75,-364.05,-254.42002)" d="M561.44 392.96H567.2V398.56H561.44Z" fill="#d864ff"/>
<path transform="matrix(.75,0,0,.75,10.470001,50.98001)" d="M0 0C0 2.56-2.08 4.64-4.64 4.64-7.2 4.64-9.12 2.56-9.12 0-9.12-2.56-7.2-4.48-4.64-4.48-2.08-4.48 0-2.56 0 0Z" fill="#d864ff"/>
<path transform="matrix(.75,0,0,.75,29.790009,56.619997)" d="M0 0C0 1.76-1.44 3.2-3.2 3.2-4.96 3.2-6.24 1.76-6.24 0-6.24-1.76-4.96-3.04-3.2-3.04-1.44-3.04 0-1.76 0 0Z" fill="#d864ff"/>
<path transform="matrix(.75,0,0,.75,29.790009,78.21997)" d="M0 0C0 1.76-1.44 3.2-3.2 3.2-4.96 3.2-6.24 1.76-6.24 0-6.24-1.76-4.96-3.04-3.2-3.04-1.44-3.04 0-1.76 0 0Z" fill="#d864ff"/>
<path transform="matrix(.75,0,0,.75,17.910004,71.379978)" d="M0 0C0 2.56-2.08 4.64-4.64 4.64-7.2 4.64-9.12 2.56-9.12 0-9.12-2.56-7.2-4.48-4.64-4.48-2.08-4.48 0-2.56 0 0Z" fill="#d864ff"/>
<path transform="matrix(.75,0,0,.75,43.950014,78.21997)" d="M0 0C0 1.76-1.44 3.2-3.2 3.2-4.96 3.2-6.24 1.76-6.24 0-6.24-1.76-4.96-3.04-3.2-3.04-1.44-3.04 0-1.76 0 0Z" fill="#d864ff"/>
<path transform="matrix(.75,0,0,.75,-364.05,-254.42002)" d="M594.56 386.88H599.04V391.52H594.56Z" fill="#d864ff"/>
<path transform="matrix(.75,0,0,.75,102.869998,14.619995)" d="M0 0C0 2.56-2.08 4.64-4.64 4.64-7.2 4.64-9.12 2.56-9.12 0-9.12-2.56-7.2-4.48-4.64-4.48-2.08-4.48 0-2.56 0 0Z" fill="#d864ff"/>
<path transform="matrix(.75,0,0,.75,68.670047,49.660005)" d="M0 0C0 1.6-1.44 3.04-3.04 3.04-4.64 3.04-5.92 1.6-5.92 0-5.92-1.6-4.64-2.88-3.04-2.88-1.44-2.88 0-1.6 0 0Z" fill="#d864ff"/>
<path transform="matrix(.75,0,0,.75,106.35004,32.73999)" d="M0 0C0 2.56-2.08 4.64-4.64 4.64-7.2 4.64-9.12 2.56-9.12 0-9.12-2.56-7.2-4.48-4.64-4.48-2.08-4.48 0-2.56 0 0Z" fill="#d864ff"/>
<path transform="matrix(.75,0,0,.75,76.71002,15.819977)" d="M0 0C0 1.44-1.28 2.72-2.72 2.72-4.16 2.72-5.28 1.44-5.28 0-5.28-1.44-4.16-2.56-2.72-2.56-1.28-2.56 0-1.44 0 0Z" fill="#d864ff"/>
<path transform="matrix(.75,0,0,.75,83.910037,15.819977)" d="M0 0C0 1.44-1.28 2.72-2.72 2.72-4.16 2.72-5.28 1.44-5.28 0-5.28-1.44-4.16-2.56-2.72-2.56-1.28-2.56 0-1.44 0 0Z" fill="#d864ff"/>
<path transform="matrix(.75,0,0,.75,17.910004,14.619995)" d="M0 0C0 2.56-2.08 4.64-4.64 4.64-7.2 4.64-9.12 2.56-9.12 0-9.12-2.56-7.2-4.48-4.64-4.48-2.08-4.48 0-2.56 0 0Z" fill="#d864ff"/>
<path transform="matrix(.75,0,0,.75,29.790009,10.059998)" d="M0 0C0 1.76-1.44 3.2-3.2 3.2-4.96 3.2-6.24 1.76-6.24 0-6.24-1.76-4.96-3.04-3.2-3.04-1.44-3.04 0-1.76 0 0Z" fill="#d864ff"/>
<path transform="matrix(.75,0,0,.75,29.790009,31.660004)" d="M0 0C0 1.76-1.44 3.2-3.2 3.2-4.96 3.2-6.24 1.76-6.24 0-6.24-1.76-4.96-3.04-3.2-3.04-1.44-3.04 0-1.76 0 0Z" fill="#d864ff"/>
<path transform="matrix(.75,0,0,.75,10.470001,33.940004)" d="M0 0C0 2.56-2.08 4.64-4.64 4.64-7.2 4.64-9.12 2.56-9.12 0-9.12-2.56-7.2-4.48-4.64-4.48-2.08-4.48 0-2.56 0 0Z" fill="#d864ff"/>
<path transform="matrix(.75,0,0,.75,-364.05,-254.42002)" stroke-width=".16" stroke-linecap="butt" stroke-miterlimit="10" stroke-linejoin="miter" fill="none" stroke="#d0d2cd" d="M485.76 453.28H636.8"/>
<path transform="matrix(.75,0,0,.75,-364.05,-254.42002)" stroke-width=".16" stroke-linecap="butt" stroke-miterlimit="10" stroke-linejoin="miter" fill="none" stroke="#d0d2cd" d="M485.76 339.84H636.8"/>
<path transform="matrix(.75,0,0,.75,-364.05,-254.42002)" stroke-width=".16" stroke-linecap="butt" stroke-miterlimit="10" stroke-linejoin="miter" fill="none" stroke="#d0d2cd" d="M485.76 339.84V453.28"/>
<path transform="matrix(.75,0,0,.75,-364.05,-254.42002)" stroke-width=".16" stroke-linecap="butt" stroke-miterlimit="10" stroke-linejoin="miter" fill="none" stroke="#d0d2cd" d="M636.8 453.28V339.84"/>
<path transform="matrix(.75,0,0,.75,-364.05,-254.42002)" d="M553.12 379.2H557.44V383.68H553.12ZM519.84 395.2H524.16V399.52H519.84Z" fill="#02ffee" fill-rule="evenodd"/>
<path transform="matrix(.75,0,0,.75,23.549988,43.539979)" d="M0 0C0 1.28-1.12 2.4-2.4 2.4-3.68 2.4-4.64 1.28-4.64 0-4.64-1.28-3.68-2.24-2.4-2.24-1.12-2.24 0-1.28 0 0Z" fill="#02ffee"/>
<path transform="matrix(.75,0,0,.75,43.950014,56.619997)" d="M0 0C0 1.76-1.44 3.2-3.2 3.2-4.96 3.2-6.24 1.76-6.24 0-6.24-1.76-4.96-3.04-3.2-3.04-1.44-3.04 0-1.76 0 0Z" fill="#02ffee"/>
<path transform="matrix(.75,0,0,.75,85.35004,47.379976)" d="M0 0C0 1.28-1.12 2.4-2.4 2.4-3.68 2.4-4.64 1.28-4.64 0-4.64-1.28-3.68-2.24-2.4-2.24-1.12-2.24 0-1.28 0 0Z" fill="#02ffee"/>
<path transform="matrix(.75,0,0,.75,102.869998,71.379978)" d="M0 0C0 2.56-2.08 4.64-4.64 4.64-7.2 4.64-9.12 2.56-9.12 0-9.12-2.56-7.2-4.48-4.64-4.48-2.08-4.48 0-2.56 0 0Z" fill="#02ffee"/>
<path transform="matrix(.75,0,0,.75,106.35004,48.69998)" d="M0 0C0 2.56-2.08 4.64-4.64 4.64-7.2 4.64-9.12 2.56-9.12 0-9.12-2.56-7.2-4.48-4.64-4.48-2.08-4.48 0-2.56 0 0Z" fill="#02ffee"/>
<path transform="matrix(.75,0,0,.75,61.47,56.859987)" d="M0 0C0 1.6-1.44 3.04-3.04 3.04-4.64 3.04-5.92 1.6-5.92 0-5.92-1.6-4.64-2.88-3.04-2.88-1.44-2.88 0-1.6 0 0Z" fill="#02ffee"/>
<path transform="matrix(.75,0,0,.75,61.47,78.21997)" d="M0 0C0 2.56-2.08 4.64-4.64 4.64-7.2 4.64-9.12 2.56-9.12 0-9.12-2.56-7.2-4.48-4.64-4.48-2.08-4.48 0-2.56 0 0Z" fill="#02ffee"/>
<path transform="matrix(.75,0,0,.75,61.350038,10.059998)" d="M0 0C0 2.56-2.08 4.64-4.64 4.64-7.2 4.64-9.12 2.56-9.12 0-9.12-2.56-7.2-4.48-4.64-4.48-2.08-4.48 0-2.56 0 0Z" fill="#02ffee"/>
<path transform="matrix(.75,0,0,.75,59.79001,31.660004)" d="M0 0C0 1.28-1.12 2.4-2.4 2.4-3.68 2.4-4.64 1.28-4.64 0-4.64-1.28-3.68-2.24-2.4-2.24-1.12-2.24 0-1.28 0 0Z" fill="#02ffee"/>
<path transform="matrix(.75,0,0,.75,45.75003,10.059998)" d="M0 0C0 1.76-1.44 3.2-3.2 3.2-4.96 3.2-6.24 1.76-6.24 0-6.24-1.76-4.96-3.04-3.2-3.04-1.44-3.04 0-1.76 0 0Z" fill="#02ffee"/>
<path transform="matrix(.75,0,0,.75,45.75003,31.660004)" d="M0 0C0 1.76-1.44 3.2-3.2 3.2-4.96 3.2-6.24 1.76-6.24 0-6.24-1.76-4.96-3.04-3.2-3.04-1.44-3.04 0-1.76 0 0Z" fill="#02ffee"/>
<path transform="matrix(.75,0,0,.75,-364.05,-254.42002)" d="M561.44 392.96H567.2V398.56H561.44Z" fill="#02ffee"/>
<path transform="matrix(.75,0,0,.75,10.470001,50.98001)" d="M0 0C0 2.56-2.08 4.64-4.64 4.64-7.2 4.64-9.12 2.56-9.12 0-9.12-2.56-7.2-4.48-4.64-4.48-2.08-4.48 0-2.56 0 0Z" fill="#02ffee"/>
<path transform="matrix(.75,0,0,.75,29.790009,56.619997)" d="M0 0C0 1.76-1.44 3.2-3.2 3.2-4.96 3.2-6.24 1.76-6.24 0-6.24-1.76-4.96-3.04-3.2-3.04-1.44-3.04 0-1.76 0 0Z" fill="#02ffee"/>
<path transform="matrix(.75,0,0,.75,29.790009,78.21997)" d="M0 0C0 1.76-1.44 3.2-3.2 3.2-4.96 3.2-6.24 1.76-6.24 0-6.24-1.76-4.96-3.04-3.2-3.04-1.44-3.04 0-1.76 0 0Z" fill="#02ffee"/>
<path transform="matrix(.75,0,0,.75,17.910004,71.379978)" d="M0 0C0 2.56-2.08 4.64-4.64 4.64-7.2 4.64-9.12 2.56-9.12 0-9.12-2.56-7.2-4.48-4.64-4.48-2.08-4.48 0-2.56 0 0Z" fill="#02ffee"/>
<path transform="matrix(.75,0,0,.75,43.950014,78.21997)" d="M0 0C0 1.76-1.44 3.2-3.2 3.2-4.96 3.2-6.24 1.76-6.24 0-6.24-1.76-4.96-3.04-3.2-3.04-1.44-3.04 0-1.76 0 0Z" fill="#02ffee"/>
<path transform="matrix(.75,0,0,.75,-364.05,-254.42002)" d="M594.56 386.88H599.04V391.52H594.56Z" fill="#02ffee"/>
<path transform="matrix(.75,0,0,.75,102.869998,14.619995)" d="M0 0C0 2.56-2.08 4.64-4.64 4.64-7.2 4.64-9.12 2.56-9.12 0-9.12-2.56-7.2-4.48-4.64-4.48-2.08-4.48 0-2.56 0 0Z" fill="#02ffee"/>
<path transform="matrix(.75,0,0,.75,68.670047,49.660005)" d="M0 0C0 1.6-1.44 3.04-3.04 3.04-4.64 3.04-5.92 1.6-5.92 0-5.92-1.6-4.64-2.88-3.04-2.88-1.44-2.88 0-1.6 0 0Z" fill="#02ffee"/>
<path transform="matrix(.75,0,0,.75,106.35004,32.73999)" d="M0 0C0 2.56-2.08 4.64-4.64 4.64-7.2 4.64-9.12 2.56-9.12 0-9.12-2.56-7.2-4.48-4.64-4.48-2.08-4.48 0-2.56 0 0Z" fill="#02ffee"/>
<path transform="matrix(.75,0,0,.75,76.71002,15.819977)" d="M0 0C0 1.44-1.28 2.72-2.72 2.72-4.16 2.72-5.28 1.44-5.28 0-5.28-1.44-4.16-2.56-2.72-2.56-1.28-2.56 0-1.44 0 0Z" fill="#02ffee"/>
<path transform="matrix(.75,0,0,.75,83.910037,15.819977)" d="M0 0C0 1.44-1.28 2.72-2.72 2.72-4.16 2.72-5.28 1.44-5.28 0-5.28-1.44-4.16-2.56-2.72-2.56-1.28-2.56 0-1.44 0 0Z" fill="#02ffee"/>
<path transform="matrix(.75,0,0,.75,17.910004,14.619995)" d="M0 0C0 2.56-2.08 4.64-4.64 4.64-7.2 4.64-9.12 2.56-9.12 0-9.12-2.56-7.2-4.48-4.64-4.48-2.08-4.48 0-2.56 0 0Z" fill="#02ffee"/>
<path transform="matrix(.75,0,0,.75,29.790009,10.059998)" d="M0 0C0 1.76-1.44 3.2-3.2 3.2-4.96 3.2-6.24 1.76-6.24 0-6.24-1.76-4.96-3.04-3.2-3.04-1.44-3.04 0-1.76 0 0Z" fill="#02ffee"/>
<path transform="matrix(.75,0,0,.75,29.790009,31.660004)" d="M0 0C0 1.76-1.44 3.2-3.2 3.2-4.96 3.2-6.24 1.76-6.24 0-6.24-1.76-4.96-3.04-3.2-3.04-1.44-3.04 0-1.76 0 0Z" fill="#02ffee"/>
<path transform="matrix(.75,0,0,.75,10.470001,33.940004)" d="M0 0C0 2.56-2.08 4.64-4.64 4.64-7.2 4.64-9.12 2.56-9.12 0-9.12-2.56-7.2-4.48-4.64-4.48-2.08-4.48 0-2.56 0 0Z" fill="#02ffee"/>
<path transform="matrix(.75,0,0,.75,-364.05,-254.42002)" stroke-width="3.84" stroke-linecap="round" stroke-linejoin="round" fill="none" stroke="#4d7fc4" d="M622.56 404.16 614.24 395.84"/>
<path transform="matrix(.75,0,0,.75,-364.05,-254.42002)" stroke-width="3.84" stroke-linecap="round" stroke-linejoin="round" fill="none" stroke="#4d7fc4" d="M626.24 418.4 633.12 411.68"/>
<path transform="matrix(.75,0,0,.75,-364.05,-254.42002)" stroke-width="3.84" stroke-linecap="round" stroke-linejoin="round" fill="none" stroke="#4d7fc4" d="M612.8 418.4H626.24"/>
<path transform="matrix(.75,0,0,.75,-364.05,-254.42002)" stroke-width="3.84" stroke-linecap="round" stroke-linejoin="round" fill="none" stroke="#4d7fc4" d="M633.12 411.68V393.6"/>
<path transform="matrix(.75,0,0,.75,-364.05,-254.42002)" stroke-width="3.84" stroke-linecap="round" stroke-linejoin="round" fill="none" stroke="#4d7fc4" d="M571.04 381.44H562.72"/>
<path transform="matrix(.75,0,0,.75,-364.05,-254.42002)" stroke-width="3.84" stroke-linecap="round" stroke-linejoin="round" fill="none" stroke="#4d7fc4" d="M564.32 395.84H557.44"/>
<path transform="matrix(.75,0,0,.75,-364.05,-254.42002)" stroke-width="3.84" stroke-linecap="round" stroke-linejoin="round" fill="none" stroke="#4d7fc4" d="M557.44 395.84 543.2 381.44"/>
<path transform="matrix(.75,0,0,.75,-364.05,-254.42002)" stroke-width="3.84" stroke-linecap="round" stroke-linejoin="round" fill="none" stroke="#4d7fc4" d="M530.08 405.44H573.92"/>
<path transform="matrix(.75,0,0,.75,-364.05,-254.42002)" stroke-width="3.84" stroke-linecap="round" stroke-linejoin="round" fill="none" stroke="#4d7fc4" d="M584.96 360.32V377.28"/>
<path transform="matrix(.75,0,0,.75,-364.05,-254.42002)" stroke-width="3.84" stroke-linecap="round" stroke-linejoin="round" fill="none" stroke="#4d7fc4" d="M562.56 352.64H577.44"/>
<path transform="matrix(.75,0,0,.75,-364.05,-254.42002)" stroke-width="3.84" stroke-linecap="round" stroke-linejoin="round" fill="none" stroke="#4d7fc4" d="M577.44 352.64 584.96 360.32"/>
<path transform="matrix(.75,0,0,.75,-364.05,-254.42002)" stroke-width="3.84" stroke-linecap="round" stroke-linejoin="round" fill="none" stroke="#4d7fc4" d="M543.2 381.44V381.44"/>
<path transform="matrix(.75,0,0,.75,-364.05,-254.42002)" stroke-width="3.84" stroke-linecap="round" stroke-linejoin="round" fill="none" stroke="#4d7fc4" d="M521.92 397.28 530.08 405.44"/>
<path transform="matrix(.75,0,0,.75,-364.05,-254.42002)" stroke-width="3.84" stroke-linecap="round" stroke-linejoin="round" fill="none" stroke="#4d7fc4" d="M521.92 397.28V381.44"/>
<path transform="matrix(.75,0,0,.75,-364.05,-254.42002)" stroke-width="3.84" stroke-linecap="round" stroke-linejoin="round" fill="none" stroke="#4d7fc4" d="M494.72 384.48H501.6"/>
<path transform="matrix(.75,0,0,.75,-364.05,-254.42002)" stroke-width="3.84" stroke-linecap="round" stroke-linejoin="round" fill="none" stroke="#4d7fc4" d="M501.6 384.48 514.4 397.28"/>
<path transform="matrix(.75,0,0,.75,-364.05,-254.42002)" stroke-width="3.84" stroke-linecap="round" stroke-linejoin="round" fill="none" stroke="#4d7fc4" d="M555.2 381.44H543.2"/>
<path transform="matrix(.75,0,0,.75,-364.05,-254.42002)" stroke-width="3.84" stroke-linecap="round" stroke-linejoin="round" fill="none" stroke="#4d7fc4" d="M562.56 352.64V352.64"/>
<path transform="matrix(.75,0,0,.75,-364.05,-254.42002)" stroke-width="3.84" stroke-linecap="round" stroke-linejoin="round" fill="none" stroke="#4d7fc4" d="M543.2 352.64H562.56"/>
<path transform="matrix(.75,0,0,.75,-364.05,-254.42002)" stroke-width="3.84" stroke-linecap="round" stroke-linejoin="round" fill="none" stroke="#4d7fc4" d="M521.92 352.64H543.2"/>
<path transform="matrix(.75,0,0,.75,-364.05,-254.42002)" stroke-width="3.84" stroke-linecap="round" stroke-linejoin="round" fill="none" stroke="#4d7fc4" d="M614.24 395.84H585.44"/>
<path transform="matrix(.75,0,0,.75,-364.05,-254.42002)" stroke-width="3.84" stroke-linecap="round" stroke-linejoin="round" fill="none" stroke="#4d7fc4" d="M585.44 395.84 571.04 381.44"/>
<path transform="matrix(.75,0,0,.75,-364.05,-254.42002)" stroke-width="3.84" stroke-linecap="round" stroke-linejoin="round" fill="none" stroke="#4d7fc4" d="M584.96 377.28 596.8 389.12"/>
<path transform="matrix(.75,0,0,.75,-364.05,-254.42002)" stroke-width="3.84" stroke-linecap="round" stroke-linejoin="round" fill="none" stroke="#4d7fc4" d="M599.84 360.32 622.56 382.88"/>
<path transform="matrix(.75,0,0,.75,-364.05,-254.42002)" stroke-width="3.84" stroke-linecap="round" stroke-linejoin="round" fill="none" stroke="#4d7fc4" d="M594.56 360.32H599.84"/>
<path transform="matrix(.75,0,0,.75,-364.05,-254.42002)" stroke-width="3.84" stroke-linecap="round" stroke-linejoin="round" fill="none" stroke="#4d7fc4" d="M633.12 393.6 622.56 382.88"/>
<path transform="matrix(.75,0,0,.75,-364.05,-254.42002)" stroke-width="3.84" stroke-linecap="round" stroke-linejoin="round" fill="none" stroke="#4d7fc4" d="M521.92 414.72V397.28"/>
<path transform="matrix(.75,0,0,.75,-364.05,-254.42002)" stroke-width="3.84" stroke-linecap="round" stroke-linejoin="round" fill="none" stroke="#4d7fc4" d="M521.92 443.52H540.8"/>
<path transform="matrix(.75,0,0,.75,-364.05,-254.42002)" stroke-width="3.84" stroke-linecap="round" stroke-linejoin="round" fill="none" stroke="#4d7fc4" d="M494.72 407.2 521.92 434.4"/>
<path transform="matrix(.75,0,0,.75,-364.05,-254.42002)" stroke-width="3.84" stroke-linecap="round" stroke-linejoin="round" fill="none" stroke="#4d7fc4" d="M521.92 434.4V443.52"/>
<path transform="matrix(.75,0,0,.75,-364.05,-254.42002)" stroke-width="3.84" stroke-linecap="round" stroke-linejoin="round" fill="none" stroke="#4d7fc4" d="M564 414.72 564.32 415.04"/>
<path transform="matrix(.75,0,0,.75,-364.05,-254.42002)" stroke-width="3.84" stroke-linecap="round" stroke-linejoin="round" fill="none" stroke="#4d7fc4" d="M596.8 402.4 612.8 418.4"/>
<path transform="matrix(.75,0,0,.75,-364.05,-254.42002)" stroke-width="3.84" stroke-linecap="round" stroke-linejoin="round" fill="none" stroke="#4d7fc4" d="M562.72 432.32 592.48 402.4"/>
<path transform="matrix(.75,0,0,.75,-364.05,-254.42002)" stroke-width="3.84" stroke-linecap="round" stroke-linejoin="round" fill="none" stroke="#4d7fc4" d="M592.48 402.4H596.8"/>
<path transform="matrix(.75,0,0,.75,-364.05,-254.42002)" stroke-width="3.84" stroke-linecap="round" stroke-linejoin="round" fill="none" stroke="#4d7fc4" d="M562.72 443.52H540.96"/>
<path transform="matrix(.75,0,0,.75,-364.05,-254.42002)" stroke-width="3.84" stroke-linecap="round" stroke-linejoin="round" fill="none" stroke="#4d7fc4" d="M562.72 443.52V432.32"/>
<path transform="matrix(.75,0,0,.75,-364.05,-254.42002)" stroke-width="3.84" stroke-linecap="round" stroke-linejoin="round" fill="none" stroke="#4d7fc4" d="M540.8 443.52V443.52"/>
<path transform="matrix(.75,0,0,.75,-364.05,-254.42002)" stroke-width="3.84" stroke-linecap="round" stroke-linejoin="round" fill="none" stroke="#4d7fc4" d="M540.96 443.52H540.8"/>
<path transform="matrix(.75,0,0,.75,-364.05,-254.42002)" stroke-width="3.84" stroke-linecap="round" stroke-linejoin="round" fill="none" stroke="#4d7fc4" d="M540.8 414.72H564"/>
<path transform="matrix(.75,0,0,.75,-364.05,-254.42002)" d="M553.12 379.2H557.44V383.68H553.12ZM519.84 395.2H524.16V399.52H519.84Z" fill="#e3b72e" fill-rule="evenodd"/>
<path transform="matrix(.75,0,0,.75,23.549988,43.539979)" d="M0 0C0 1.28-1.12 2.4-2.4 2.4-3.68 2.4-4.64 1.28-4.64 0-4.64-1.28-3.68-2.24-2.4-2.24-1.12-2.24 0-1.28 0 0Z" fill="#e3b72e"/>
<path transform="matrix(.75,0,0,.75,43.950014,56.619997)" d="M0 0C0 1.76-1.44 3.2-3.2 3.2-4.96 3.2-6.24 1.76-6.24 0-6.24-1.76-4.96-3.04-3.2-3.04-1.44-3.04 0-1.76 0 0Z" fill="#e3b72e"/>
<path transform="matrix(.75,0,0,.75,85.35004,47.379976)" d="M0 0C0 1.28-1.12 2.4-2.4 2.4-3.68 2.4-4.64 1.28-4.64 0-4.64-1.28-3.68-2.24-2.4-2.24-1.12-2.24 0-1.28 0 0Z" fill="#e3b72e"/>
<path transform="matrix(.75,0,0,.75,102.869998,71.379978)" d="M0 0C0 2.56-2.08 4.64-4.64 4.64-7.2 4.64-9.12 2.56-9.12 0-9.12-2.56-7.2-4.48-4.64-4.48-2.08-4.48 0-2.56 0 0Z" fill="#e3b72e"/>
<path transform="matrix(.75,0,0,.75,106.35004,48.69998)" d="M0 0C0 2.56-2.08 4.64-4.64 4.64-7.2 4.64-9.12 2.56-9.12 0-9.12-2.56-7.2-4.48-4.64-4.48-2.08-4.48 0-2.56 0 0Z" fill="#e3b72e"/>
<path transform="matrix(.75,0,0,.75,61.47,56.859987)" d="M0 0C0 1.6-1.44 3.04-3.04 3.04-4.64 3.04-5.92 1.6-5.92 0-5.92-1.6-4.64-2.88-3.04-2.88-1.44-2.88 0-1.6 0 0Z" fill="#e3b72e"/>
<path transform="matrix(.75,0,0,.75,61.47,78.21997)" d="M0 0C0 2.56-2.08 4.64-4.64 4.64-7.2 4.64-9.12 2.56-9.12 0-9.12-2.56-7.2-4.48-4.64-4.48-2.08-4.48 0-2.56 0 0Z" fill="#e3b72e"/>
<path transform="matrix(.75,0,0,.75,61.350038,10.059998)" d="M0 0C0 2.56-2.08 4.64-4.64 4.64-7.2 4.64-9.12 2.56-9.12 0-9.12-2.56-7.2-4.48-4.64-4.48-2.08-4.48 0-2.56 0 0Z" fill="#e3b72e"/>
<path transform="matrix(.75,0,0,.75,59.79001,31.660004)" d="M0 0C0 1.28-1.12 2.4-2.4 2.4-3.68 2.4-4.64 1.28-4.64 0-4.64-1.28-3.68-2.24-2.4-2.24-1.12-2.24 0-1.28 0 0Z" fill="#e3b72e"/>
<path transform="matrix(.75,0,0,.75,45.75003,10.059998)" d="M0 0C0 1.76-1.44 3.2-3.2 3.2-4.96 3.2-6.24 1.76-6.24 0-6.24-1.76-4.96-3.04-3.2-3.04-1.44-3.04 0-1.76 0 0Z" fill="#e3b72e"/>
<path transform="matrix(.75,0,0,.75,45.75003,31.660004)" d="M0 0C0 1.76-1.44 3.2-3.2 3.2-4.96 3.2-6.24 1.76-6.24 0-6.24-1.76-4.96-3.04-3.2-3.04-1.44-3.04 0-1.76 0 0Z" fill="#e3b72e"/>
<path transform="matrix(.75,0,0,.75,-364.05,-254.42002)" d="M561.44 392.96H567.2V398.56H561.44Z" fill="#e3b72e"/>
<path transform="matrix(.75,0,0,.75,10.470001,50.98001)" d="M0 0C0 2.56-2.08 4.64-4.64 4.64-7.2 4.64-9.12 2.56-9.12 0-9.12-2.56-7.2-4.48-4.64-4.48-2.08-4.48 0-2.56 0 0Z" fill="#e3b72e"/>
<path transform="matrix(.75,0,0,.75,29.790009,56.619997)" d="M0 0C0 1.76-1.44 3.2-3.2 3.2-4.96 3.2-6.24 1.76-6.24 0-6.24-1.76-4.96-3.04-3.2-3.04-1.44-3.04 0-1.76 0 0Z" fill="#e3b72e"/>
<path transform="matrix(.75,0,0,.75,29.790009,78.21997)" d="M0 0C0 1.76-1.44 3.2-3.2 3.2-4.96 3.2-6.24 1.76-6.24 0-6.24-1.76-4.96-3.04-3.2-3.04-1.44-3.04 0-1.76 0 0Z" fill="#e3b72e"/>
<path transform="matrix(.75,0,0,.75,17.910004,71.379978)" d="M0 0C0 2.56-2.08 4.64-4.64 4.64-7.2 4.64-9.12 2.56-9.12 0-9.12-2.56-7.2-4.48-4.64-4.48-2.08-4.48 0-2.56 0 0Z" fill="#e3b72e"/>
<path transform="matrix(.75,0,0,.75,43.950014,78.21997)" d="M0 0C0 1.76-1.44 3.2-3.2 3.2-4.96 3.2-6.24 1.76-6.24 0-6.24-1.76-4.96-3.04-3.2-3.04-1.44-3.04 0-1.76 0 0Z" fill="#e3b72e"/>
<path transform="matrix(.75,0,0,.75,-364.05,-254.42002)" d="M594.56 386.88H599.04V391.52H594.56Z" fill="#e3b72e"/>
<path transform="matrix(.75,0,0,.75,102.869998,14.619995)" d="M0 0C0 2.56-2.08 4.64-4.64 4.64-7.2 4.64-9.12 2.56-9.12 0-9.12-2.56-7.2-4.48-4.64-4.48-2.08-4.48 0-2.56 0 0Z" fill="#e3b72e"/>
<path transform="matrix(.75,0,0,.75,68.670047,49.660005)" d="M0 0C0 1.6-1.44 3.04-3.04 3.04-4.64 3.04-5.92 1.6-5.92 0-5.92-1.6-4.64-2.88-3.04-2.88-1.44-2.88 0-1.6 0 0Z" fill="#e3b72e"/>
<path transform="matrix(.75,0,0,.75,106.35004,32.73999)" d="M0 0C0 2.56-2.08 4.64-4.64 4.64-7.2 4.64-9.12 2.56-9.12 0-9.12-2.56-7.2-4.48-4.64-4.48-2.08-4.48 0-2.56 0 0Z" fill="#e3b72e"/>
<path transform="matrix(.75,0,0,.75,76.71002,15.819977)" d="M0 0C0 1.44-1.28 2.72-2.72 2.72-4.16 2.72-5.28 1.44-5.28 0-5.28-1.44-4.16-2.56-2.72-2.56-1.28-2.56 0-1.44 0 0Z" fill="#e3b72e"/>
<path transform="matrix(.75,0,0,.75,83.910037,15.819977)" d="M0 0C0 1.44-1.28 2.72-2.72 2.72-4.16 2.72-5.28 1.44-5.28 0-5.28-1.44-4.16-2.56-2.72-2.56-1.28-2.56 0-1.44 0 0Z" fill="#e3b72e"/>
<path transform="matrix(.75,0,0,.75,17.910004,14.619995)" d="M0 0C0 2.56-2.08 4.64-4.64 4.64-7.2 4.64-9.12 2.56-9.12 0-9.12-2.56-7.2-4.48-4.64-4.48-2.08-4.48 0-2.56 0 0Z" fill="#e3b72e"/>
<path transform="matrix(.75,0,0,.75,29.790009,10.059998)" d="M0 0C0 1.76-1.44 3.2-3.2 3.2-4.96 3.2-6.24 1.76-6.24 0-6.24-1.76-4.96-3.04-3.2-3.04-1.44-3.04 0-1.76 0 0Z" fill="#e3b72e"/>
<path transform="matrix(.75,0,0,.75,29.790009,31.660004)" d="M0 0C0 1.76-1.44 3.2-3.2 3.2-4.96 3.2-6.24 1.76-6.24 0-6.24-1.76-4.96-3.04-3.2-3.04-1.44-3.04 0-1.76 0 0Z" fill="#e3b72e"/>
<path transform="matrix(.75,0,0,.75,10.470001,33.940004)" d="M0 0C0 2.56-2.08 4.64-4.64 4.64-7.2 4.64-9.12 2.56-9.12 0-9.12-2.56-7.2-4.48-4.64-4.48-2.08-4.48 0-2.56 0 0Z" fill="#e3b72e"/>
<path transform="matrix(.75,0,0,.75,53.549989,31.660004)" stroke-width=".16" stroke-linecap="butt" stroke-miterlimit="10" stroke-linejoin="miter" fill="none" stroke="#e3b72e" d="M0 0C0 .8-.8 1.6-1.6 1.6-2.4 1.6-3.04 .8-3.04 0-3.04-.8-2.4-1.44-1.6-1.44-.8-1.44 0-.8 0 0Z"/>
<path transform="matrix(.75,0,0,.75,28.590027,43.539979)" stroke-width=".16" stroke-linecap="butt" stroke-miterlimit="10" stroke-linejoin="miter" fill="none" stroke="#e3b72e" d="M0 0C0 .8-.8 1.6-1.6 1.6-2.4 1.6-3.04 .8-3.04 0-3.04-.8-2.4-1.44-1.6-1.44-.8-1.44 0-.8 0 0Z"/>
<path transform="matrix(.75,0,0,.75,22.950013,43.539979)" stroke-width=".16" stroke-linecap="butt" stroke-miterlimit="10" stroke-linejoin="miter" fill="none" stroke="#e3b72e" d="M0 0C0 .8-.8 1.6-1.6 1.6-2.4 1.6-3.04 .8-3.04 0-3.04-.8-2.4-1.44-1.6-1.44-.8-1.44 0-.8 0 0Z"/>
<path transform="matrix(.75,0,0,.75,42.869997,56.619997)" stroke-width=".16" stroke-linecap="butt" stroke-miterlimit="10" stroke-linejoin="miter" fill="none" stroke="#e3b72e" d="M0 0C0 .96-.8 1.76-1.76 1.76-2.72 1.76-3.36 .96-3.36 0-3.36-.96-2.72-1.6-1.76-1.6-.8-1.6 0-.96 0 0Z"/>
<path transform="matrix(.75,0,0,.75,84.869998,47.379976)" stroke-width=".16" stroke-linecap="butt" stroke-miterlimit="10" stroke-linejoin="miter" fill="none" stroke="#e3b72e" d="M0 0C0 .96-.8 1.76-1.76 1.76-2.72 1.76-3.36 .96-3.36 0-3.36-.96-2.72-1.6-1.76-1.6-.8-1.6 0-.96 0 0Z"/>
<path transform="matrix(.75,0,0,.75,101.19,71.379978)" stroke-width=".16" stroke-linecap="butt" stroke-miterlimit="10" stroke-linejoin="miter" fill="none" stroke="#e3b72e" d="M0 0C0 1.28-1.12 2.4-2.4 2.4-3.68 2.4-4.64 1.28-4.64 0-4.64-1.28-3.68-2.24-2.4-2.24-1.12-2.24 0-1.28 0 0Z"/>
<path transform="matrix(.75,0,0,.75,104.670047,48.69998)" stroke-width=".16" stroke-linecap="butt" stroke-miterlimit="10" stroke-linejoin="miter" fill="none" stroke="#e3b72e" d="M0 0C0 1.28-1.12 2.4-2.4 2.4-3.68 2.4-4.64 1.28-4.64 0-4.64-1.28-3.68-2.24-2.4-2.24-1.12-2.24 0-1.28 0 0Z"/>
<path transform="matrix(.75,0,0,.75,60.51001,56.859987)" stroke-width=".16" stroke-linecap="butt" stroke-miterlimit="10" stroke-linejoin="miter" fill="none" stroke="#e3b72e" d="M0 0C0 .96-.8 1.76-1.76 1.76-2.72 1.76-3.36 .96-3.36 0-3.36-.96-2.72-1.6-1.76-1.6-.8-1.6 0-.96 0 0Z"/>
<path transform="matrix(.75,0,0,.75,59.79001,78.21997)" stroke-width=".16" stroke-linecap="butt" stroke-miterlimit="10" stroke-linejoin="miter" fill="none" stroke="#e3b72e" d="M0 0C0 1.28-1.12 2.4-2.4 2.4-3.68 2.4-4.64 1.28-4.64 0-4.64-1.28-3.68-2.24-2.4-2.24-1.12-2.24 0-1.28 0 0Z"/>
<path transform="matrix(.75,0,0,.75,59.670045,10.059998)" stroke-width=".16" stroke-linecap="butt" stroke-miterlimit="10" stroke-linejoin="miter" fill="none" stroke="#e3b72e" d="M0 0C0 1.28-1.12 2.4-2.4 2.4-3.68 2.4-4.64 1.28-4.64 0-4.64-1.28-3.68-2.24-2.4-2.24-1.12-2.24 0-1.28 0 0Z"/>
<path transform="matrix(.75,0,0,.75,59.190004,31.660004)" stroke-width=".16" stroke-linecap="butt" stroke-miterlimit="10" stroke-linejoin="miter" fill="none" stroke="#e3b72e" d="M0 0C0 .8-.8 1.6-1.6 1.6-2.4 1.6-3.04 .8-3.04 0-3.04-.8-2.4-1.44-1.6-1.44-.8-1.44 0-.8 0 0Z"/>
<path transform="matrix(.75,0,0,.75,44.670045,10.059998)" stroke-width=".16" stroke-linecap="butt" stroke-miterlimit="10" stroke-linejoin="miter" fill="none" stroke="#e3b72e" d="M0 0C0 .96-.8 1.76-1.76 1.76-2.72 1.76-3.36 .96-3.36 0-3.36-.96-2.72-1.6-1.76-1.6-.8-1.6 0-.96 0 0Z"/>
<path transform="matrix(.75,0,0,.75,44.670045,31.660004)" stroke-width=".16" stroke-linecap="butt" stroke-miterlimit="10" stroke-linejoin="miter" fill="none" stroke="#e3b72e" d="M0 0C0 .96-.8 1.76-1.76 1.76-2.72 1.76-3.36 .96-3.36 0-3.36-.96-2.72-1.6-1.76-1.6-.8-1.6 0-.96 0 0Z"/>
<path transform="matrix(.75,0,0,.75,60.51001,42.45999)" stroke-width=".16" stroke-linecap="butt" stroke-miterlimit="10" stroke-linejoin="miter" fill="none" stroke="#e3b72e" d="M0 0C0 .96-.8 1.76-1.76 1.76-2.72 1.76-3.36 .96-3.36 0-3.36-.96-2.72-1.6-1.76-1.6-.8-1.6 0-.96 0 0Z"/>
<path transform="matrix(.75,0,0,.75,8.790009,50.98001)" stroke-width=".16" stroke-linecap="butt" stroke-miterlimit="10" stroke-linejoin="miter" fill="none" stroke="#e3b72e" d="M0 0C0 1.28-1.12 2.4-2.4 2.4-3.68 2.4-4.64 1.28-4.64 0-4.64-1.28-3.68-2.24-2.4-2.24-1.12-2.24 0-1.28 0 0Z"/>
<path transform="matrix(.75,0,0,.75,28.710022,56.619997)" stroke-width=".16" stroke-linecap="butt" stroke-miterlimit="10" stroke-linejoin="miter" fill="none" stroke="#e3b72e" d="M0 0C0 .96-.8 1.76-1.76 1.76-2.72 1.76-3.36 .96-3.36 0-3.36-.96-2.72-1.6-1.76-1.6-.8-1.6 0-.96 0 0Z"/>
<path transform="matrix(.75,0,0,.75,28.710022,78.21997)" stroke-width=".16" stroke-linecap="butt" stroke-miterlimit="10" stroke-linejoin="miter" fill="none" stroke="#e3b72e" d="M0 0C0 .96-.8 1.76-1.76 1.76-2.72 1.76-3.36 .96-3.36 0-3.36-.96-2.72-1.6-1.76-1.6-.8-1.6 0-.96 0 0Z"/>
<path transform="matrix(.75,0,0,.75,16.230011,71.379978)" stroke-width=".16" stroke-linecap="butt" stroke-miterlimit="10" stroke-linejoin="miter" fill="none" stroke="#e3b72e" d="M0 0C0 1.28-1.12 2.4-2.4 2.4-3.68 2.4-4.64 1.28-4.64 0-4.64-1.28-3.68-2.24-2.4-2.24-1.12-2.24 0-1.28 0 0Z"/>
<path transform="matrix(.75,0,0,.75,42.869997,78.21997)" stroke-width=".16" stroke-linecap="butt" stroke-miterlimit="10" stroke-linejoin="miter" fill="none" stroke="#e3b72e" d="M0 0C0 .96-.8 1.76-1.76 1.76-2.72 1.76-3.36 .96-3.36 0-3.36-.96-2.72-1.6-1.76-1.6-.8-1.6 0-.96 0 0Z"/>
<path transform="matrix(.75,0,0,.75,84.869998,37.419984)" stroke-width=".16" stroke-linecap="butt" stroke-miterlimit="10" stroke-linejoin="miter" fill="none" stroke="#e3b72e" d="M0 0C0 .96-.8 1.76-1.76 1.76-2.72 1.76-3.36 .96-3.36 0-3.36-.96-2.72-1.6-1.76-1.6-.8-1.6 0-.96 0 0Z"/>
<path transform="matrix(.75,0,0,.75,101.19,14.619995)" stroke-width=".16" stroke-linecap="butt" stroke-miterlimit="10" stroke-linejoin="miter" fill="none" stroke="#e3b72e" d="M0 0C0 1.28-1.12 2.4-2.4 2.4-3.68 2.4-4.64 1.28-4.64 0-4.64-1.28-3.68-2.24-2.4-2.24-1.12-2.24 0-1.28 0 0Z"/>
<path transform="matrix(.75,0,0,.75,67.71002,49.660005)" stroke-width=".16" stroke-linecap="butt" stroke-miterlimit="10" stroke-linejoin="miter" fill="none" stroke="#e3b72e" d="M0 0C0 .96-.8 1.76-1.76 1.76-2.72 1.76-3.36 .96-3.36 0-3.36-.96-2.72-1.6-1.76-1.6-.8-1.6 0-.96 0 0Z"/>
<path transform="matrix(.75,0,0,.75,104.670047,32.73999)" stroke-width=".16" stroke-linecap="butt" stroke-miterlimit="10" stroke-linejoin="miter" fill="none" stroke="#e3b72e" d="M0 0C0 1.28-1.12 2.4-2.4 2.4-3.68 2.4-4.64 1.28-4.64 0-4.64-1.28-3.68-2.24-2.4-2.24-1.12-2.24 0-1.28 0 0Z"/>
<path transform="matrix(.75,0,0,.75,75.98999,15.819977)" stroke-width=".16" stroke-linecap="butt" stroke-miterlimit="10" stroke-linejoin="miter" fill="none" stroke="#e3b72e" d="M0 0C0 .96-.8 1.76-1.76 1.76-2.72 1.76-3.36 .96-3.36 0-3.36-.96-2.72-1.6-1.76-1.6-.8-1.6 0-.96 0 0Z"/>
<path transform="matrix(.75,0,0,.75,83.19,15.819977)" stroke-width=".16" stroke-linecap="butt" stroke-miterlimit="10" stroke-linejoin="miter" fill="none" stroke="#e3b72e" d="M0 0C0 .96-.8 1.76-1.76 1.76-2.72 1.76-3.36 .96-3.36 0-3.36-.96-2.72-1.6-1.76-1.6-.8-1.6 0-.96 0 0Z"/>
<path transform="matrix(.75,0,0,.75,16.230011,14.619995)" stroke-width=".16" stroke-linecap="butt" stroke-miterlimit="10" stroke-linejoin="miter" fill="none" stroke="#e3b72e" d="M0 0C0 1.28-1.12 2.4-2.4 2.4-3.68 2.4-4.64 1.28-4.64 0-4.64-1.28-3.68-2.24-2.4-2.24-1.12-2.24 0-1.28 0 0Z"/>
<path transform="matrix(.75,0,0,.75,28.710022,10.059998)" stroke-width=".16" stroke-linecap="butt" stroke-miterlimit="10" stroke-linejoin="miter" fill="none" stroke="#e3b72e" d="M0 0C0 .96-.8 1.76-1.76 1.76-2.72 1.76-3.36 .96-3.36 0-3.36-.96-2.72-1.6-1.76-1.6-.8-1.6 0-.96 0 0Z"/>
<path transform="matrix(.75,0,0,.75,28.710022,31.660004)" stroke-width=".16" stroke-linecap="butt" stroke-miterlimit="10" stroke-linejoin="miter" fill="none" stroke="#e3b72e" d="M0 0C0 .96-.8 1.76-1.76 1.76-2.72 1.76-3.36 .96-3.36 0-3.36-.96-2.72-1.6-1.76-1.6-.8-1.6 0-.96 0 0Z"/>
<path transform="matrix(.75,0,0,.75,8.790009,33.940004)" stroke-width=".16" stroke-linecap="butt" stroke-miterlimit="10" stroke-linejoin="miter" fill="none" stroke="#e3b72e" d="M0 0C0 1.28-1.12 2.4-2.4 2.4-3.68 2.4-4.64 1.28-4.64 0-4.64-1.28-3.68-2.24-2.4-2.24-1.12-2.24 0-1.28 0 0Z"/>
<path transform="matrix(.75,0,0,.75,53.549989,31.660004)" d="M0 0C0 .8-.8 1.6-1.6 1.6-2.4 1.6-3.04 .8-3.04 0-3.04-.8-2.4-1.44-1.6-1.44-.8-1.44 0-.8 0 0Z"/>
<path transform="matrix(.75,0,0,.75,28.590027,43.539979)" d="M0 0C0 .8-.8 1.6-1.6 1.6-2.4 1.6-3.04 .8-3.04 0-3.04-.8-2.4-1.44-1.6-1.44-.8-1.44 0-.8 0 0Z"/>
<path transform="matrix(.75,0,0,.75,22.950013,43.539979)" d="M0 0C0 .8-.8 1.6-1.6 1.6-2.4 1.6-3.04 .8-3.04 0-3.04-.8-2.4-1.44-1.6-1.44-.8-1.44 0-.8 0 0Z"/>
<path transform="matrix(.75,0,0,.75,42.75003,56.619997)" d="M0 0C0 .8-.8 1.6-1.6 1.6-2.4 1.6-3.04 .8-3.04 0-3.04-.8-2.4-1.44-1.6-1.44-.8-1.44 0-.8 0 0Z"/>
<path transform="matrix(.75,0,0,.75,84.75003,47.379976)" d="M0 0C0 .8-.8 1.6-1.6 1.6-2.4 1.6-3.04 .8-3.04 0-3.04-.8-2.4-1.44-1.6-1.44-.8-1.44 0-.8 0 0Z"/>
<path transform="matrix(.75,0,0,.75,101.19,71.379978)" d="M0 0C0 1.28-1.12 2.4-2.4 2.4-3.68 2.4-4.64 1.28-4.64 0-4.64-1.28-3.68-2.24-2.4-2.24-1.12-2.24 0-1.28 0 0Z"/>
<path transform="matrix(.75,0,0,.75,104.670047,48.69998)" d="M0 0C0 1.28-1.12 2.4-2.4 2.4-3.68 2.4-4.64 1.28-4.64 0-4.64-1.28-3.68-2.24-2.4-2.24-1.12-2.24 0-1.28 0 0Z"/>
<path transform="matrix(.75,0,0,.75,60.390016,56.859987)" d="M0 0C0 .8-.8 1.6-1.6 1.6-2.4 1.6-3.04 .8-3.04 0-3.04-.8-2.4-1.44-1.6-1.44-.8-1.44 0-.8 0 0Z"/>
<path transform="matrix(.75,0,0,.75,59.79001,78.21997)" d="M0 0C0 1.28-1.12 2.4-2.4 2.4-3.68 2.4-4.64 1.28-4.64 0-4.64-1.28-3.68-2.24-2.4-2.24-1.12-2.24 0-1.28 0 0Z"/>
<path transform="matrix(.75,0,0,.75,59.670045,10.059998)" d="M0 0C0 1.28-1.12 2.4-2.4 2.4-3.68 2.4-4.64 1.28-4.64 0-4.64-1.28-3.68-2.24-2.4-2.24-1.12-2.24 0-1.28 0 0Z"/>
<path transform="matrix(.75,0,0,.75,59.190004,31.660004)" d="M0 0C0 .8-.8 1.6-1.6 1.6-2.4 1.6-3.04 .8-3.04 0-3.04-.8-2.4-1.44-1.6-1.44-.8-1.44 0-.8 0 0Z"/>
<path transform="matrix(.75,0,0,.75,44.549989,10.059998)" d="M0 0C0 .8-.8 1.6-1.6 1.6-2.4 1.6-3.04 .8-3.04 0-3.04-.8-2.4-1.44-1.6-1.44-.8-1.44 0-.8 0 0Z"/>
<path transform="matrix(.75,0,0,.75,44.549989,31.660004)" d="M0 0C0 .8-.8 1.6-1.6 1.6-2.4 1.6-3.04 .8-3.04 0-3.04-.8-2.4-1.44-1.6-1.44-.8-1.44 0-.8 0 0Z"/>
<path transform="matrix(.75,0,0,.75,60.390016,42.45999)" d="M0 0C0 .8-.8 1.6-1.6 1.6-2.4 1.6-3.04 .8-3.04 0-3.04-.8-2.4-1.44-1.6-1.44-.8-1.44 0-.8 0 0Z"/>
<path transform="matrix(.75,0,0,.75,8.790009,50.98001)" d="M0 0C0 1.28-1.12 2.4-2.4 2.4-3.68 2.4-4.64 1.28-4.64 0-4.64-1.28-3.68-2.24-2.4-2.24-1.12-2.24 0-1.28 0 0Z"/>
<path transform="matrix(.75,0,0,.75,28.590027,56.619997)" d="M0 0C0 .8-.8 1.6-1.6 1.6-2.4 1.6-3.04 .8-3.04 0-3.04-.8-2.4-1.44-1.6-1.44-.8-1.44 0-.8 0 0Z"/>
<path transform="matrix(.75,0,0,.75,28.590027,78.21997)" d="M0 0C0 .8-.8 1.6-1.6 1.6-2.4 1.6-3.04 .8-3.04 0-3.04-.8-2.4-1.44-1.6-1.44-.8-1.44 0-.8 0 0Z"/>
<path transform="matrix(.75,0,0,.75,16.230011,71.379978)" d="M0 0C0 1.28-1.12 2.4-2.4 2.4-3.68 2.4-4.64 1.28-4.64 0-4.64-1.28-3.68-2.24-2.4-2.24-1.12-2.24 0-1.28 0 0Z"/>
<path transform="matrix(.75,0,0,.75,42.75003,78.21997)" d="M0 0C0 .8-.8 1.6-1.6 1.6-2.4 1.6-3.04 .8-3.04 0-3.04-.8-2.4-1.44-1.6-1.44-.8-1.44 0-.8 0 0Z"/>
<path transform="matrix(.75,0,0,.75,84.75003,37.419984)" d="M0 0C0 .8-.8 1.6-1.6 1.6-2.4 1.6-3.04 .8-3.04 0-3.04-.8-2.4-1.44-1.6-1.44-.8-1.44 0-.8 0 0Z"/>
<path transform="matrix(.75,0,0,.75,101.19,14.619995)" d="M0 0C0 1.28-1.12 2.4-2.4 2.4-3.68 2.4-4.64 1.28-4.64 0-4.64-1.28-3.68-2.24-2.4-2.24-1.12-2.24 0-1.28 0 0Z"/>
<path transform="matrix(.75,0,0,.75,67.59003,49.660005)" d="M0 0C0 .8-.8 1.6-1.6 1.6-2.4 1.6-3.04 .8-3.04 0-3.04-.8-2.4-1.44-1.6-1.44-.8-1.44 0-.8 0 0Z"/>
<path transform="matrix(.75,0,0,.75,104.670047,32.73999)" d="M0 0C0 1.28-1.12 2.4-2.4 2.4-3.68 2.4-4.64 1.28-4.64 0-4.64-1.28-3.68-2.24-2.4-2.24-1.12-2.24 0-1.28 0 0Z"/>
<path transform="matrix(.75,0,0,.75,75.98999,15.819977)" d="M0 0C0 .96-.8 1.76-1.76 1.76-2.72 1.76-3.36 .96-3.36 0-3.36-.96-2.72-1.6-1.76-1.6-.8-1.6 0-.96 0 0Z"/>
<path transform="matrix(.75,0,0,.75,83.19,15.819977)" d="M0 0C0 .96-.8 1.76-1.76 1.76-2.72 1.76-3.36 .96-3.36 0-3.36-.96-2.72-1.6-1.76-1.6-.8-1.6 0-.96 0 0Z"/>
<path transform="matrix(.75,0,0,.75,16.230011,14.619995)" d="M0 0C0 1.28-1.12 2.4-2.4 2.4-3.68 2.4-4.64 1.28-4.64 0-4.64-1.28-3.68-2.24-2.4-2.24-1.12-2.24 0-1.28 0 0Z"/>
<path transform="matrix(.75,0,0,.75,28.590027,10.059998)" d="M0 0C0 .8-.8 1.6-1.6 1.6-2.4 1.6-3.04 .8-3.04 0-3.04-.8-2.4-1.44-1.6-1.44-.8-1.44 0-.8 0 0Z"/>
<path transform="matrix(.75,0,0,.75,28.590027,31.660004)" d="M0 0C0 .8-.8 1.6-1.6 1.6-2.4 1.6-3.04 .8-3.04 0-3.04-.8-2.4-1.44-1.6-1.44-.8-1.44 0-.8 0 0Z"/>
<path transform="matrix(.75,0,0,.75,8.790009,33.940004)" d="M0 0C0 1.28-1.12 2.4-2.4 2.4-3.68 2.4-4.64 1.28-4.64 0-4.64-1.28-3.68-2.24-2.4-2.24-1.12-2.24 0-1.28 0 0Z"/>
<g clip-path="url(#clip_1)">
<g>
<path transform="matrix(1,0,0,-1,-364.05,340.9)" d="M364.55 254.481H478.59999V340.401H364.55Z" fill="#ffffff" fill-opacity=".1" fill-rule="evenodd"/>
<path transform="matrix(1,0,0,-1,-364.05,340.9)" stroke-width="1" stroke-linecap="butt" stroke-miterlimit="10" stroke-linejoin="miter" fill="none" stroke="#00a5e4" stroke-opacity=".1" d="M364.55 254.481H478.59999V340.401H364.55Z"/>
</g>
</g>
</svg>
